<svg width="8" height="8" viewBox="0 0 8 8" fill="none" xmlns="http://www.w3.org/2000/svg">
<path d="M4 6.6613L1.97718 7.9403C1.90186 7.98643 1.82637 8.00582 1.75071 7.99849C1.67505 7.99115 1.60656 7.96441 1.54523 7.91829C1.48391 7.87216 1.43658 7.81188 1.40325 7.73744C1.36992 7.66301 1.36458 7.58072 1.38725 7.49056L1.9242 5.08247L0.138359 3.46168C0.0717006 3.40088 0.0292071 3.33047 0.0108787 3.25045C-0.00744969 3.17042 -0.00261837 3.09267 0.0253725 3.01719C0.0533721 2.94171 0.0937033 2.88003 0.146366 2.83215C0.199029 2.78428 0.271021 2.75301 0.362342 2.73833L2.71913 2.52237L3.63404 0.248454C3.66737 0.163892 3.71786 0.101339 3.78552 0.0607982C3.85318 0.0202661 3.92468 0 4 0C4.07532 0 4.14682 0.0202661 4.21448 0.0607982C4.28214 0.101339 4.33263 0.163892 4.36596 0.248454L5.28087 2.52237L7.63766 2.73833C7.72898 2.75301 7.80097 2.78428 7.85363 2.83215C7.9063 2.88003 7.94663 2.94171 7.97463 3.01719C8.00262 3.09267 8.00745 3.17042 7.98912 3.25045C7.97079 3.33047 7.9283 3.40088 7.86164 3.46168L6.0758 5.08247L6.61275 7.49056C6.63542 7.58072 6.63008 7.66301 6.59675 7.73744C6.56342 7.81188 6.51609 7.87216 6.45477 7.91829C6.39344 7.96441 6.32495 7.99115 6.24929 7.99849C6.17363 8.00582 6.09814 7.98643 6.02282 7.9403L4 6.6613Z" fill="#0354F5"/>
</svg>
