<svg width="26" height="26" viewBox="0 0 26 26" fill="none" xmlns="http://www.w3.org/2000/svg">
<path d="M24.2929 25.7071C24.6834 26.0976 25.3166 26.0976 25.7071 25.7071C26.0976 25.3166 26.0976 24.6834 25.7071 24.2929L24.2929 25.7071ZM20.5714 11.2857C20.5714 16.4141 16.4141 20.5714 11.2857 20.5714V22.5714C17.5186 22.5714 22.5714 17.5186 22.5714 11.2857H20.5714ZM11.2857 20.5714C6.15736 20.5714 2 16.4141 2 11.2857H0C0 17.5186 5.05279 22.5714 11.2857 22.5714V20.5714ZM2 11.2857C2 6.15736 6.15736 2 11.2857 2V0C5.05279 0 0 5.05279 0 11.2857H2ZM11.2857 2C16.4141 2 20.5714 6.15736 20.5714 11.2857H22.5714C22.5714 5.05279 17.5186 0 11.2857 0V2ZM17.8517 19.2659L24.2929 25.7071L25.7071 24.2929L19.2659 17.8517L17.8517 19.2659Z" fill="#827F7F" fill-opacity="0.38"/>
</svg>
