<svg width="56" height="8" viewBox="0 0 56 8" fill="none" xmlns="http://www.w3.org/2000/svg">
<path d="M4 6.6613L1.97718 7.9403C1.90186 7.98643 1.82637 8.00582 1.75071 7.99849C1.67505 7.99115 1.60656 7.96442 1.54523 7.91829C1.48391 7.87216 1.43658 7.81188 1.40325 7.73745C1.36992 7.66301 1.36458 7.58072 1.38725 7.49056L1.9242 5.08247L0.138359 3.46168C0.0717006 3.40088 0.0292071 3.33047 0.0108787 3.25045C-0.00744969 3.17042 -0.00261837 3.09267 0.0253725 3.01719C0.0533721 2.94171 0.0937033 2.88003 0.146366 2.83215C0.199029 2.78428 0.271021 2.75301 0.362342 2.73833L2.71913 2.52237L3.63404 0.248454C3.66737 0.163892 3.71786 0.101339 3.78552 0.0607982C3.85318 0.0202661 3.92468 0 4 0C4.07532 0 4.14682 0.0202661 4.21448 0.0607982C4.28214 0.101339 4.33263 0.163892 4.36596 0.248454L5.28087 2.52237L7.63766 2.73833C7.72898 2.75301 7.80097 2.78428 7.85363 2.83215C7.9063 2.88003 7.94663 2.94171 7.97463 3.01719C8.00262 3.09267 8.00745 3.17042 7.98912 3.25045C7.97079 3.33047 7.9283 3.40088 7.86164 3.46168L6.0758 5.08247L6.61275 7.49056C6.63542 7.58072 6.63008 7.66301 6.59675 7.73745C6.56342 7.81188 6.51609 7.87216 6.45477 7.91829C6.39344 7.96442 6.32495 7.99115 6.24929 7.99849C6.17363 8.00582 6.09815 7.98643 6.02282 7.9403L4 6.6613Z" fill="#0354F5"/>
<path d="M16 6.6613L13.9772 7.9403C13.9019 7.98643 13.8264 8.00582 13.7507 7.99849C13.6751 7.99115 13.6066 7.96441 13.5452 7.91829C13.4839 7.87216 13.4366 7.81188 13.4033 7.73744C13.3699 7.66301 13.3646 7.58072 13.3873 7.49056L13.9242 5.08247L12.1384 3.46168C12.0717 3.40088 12.0292 3.33047 12.0109 3.25045C11.9926 3.17042 11.9974 3.09267 12.0254 3.01719C12.0534 2.94171 12.0937 2.88003 12.1464 2.83215C12.199 2.78428 12.271 2.75301 12.3623 2.73833L14.7191 2.52237L15.634 0.248454C15.6674 0.163892 15.7179 0.101339 15.7855 0.0607982C15.8532 0.0202661 15.9247 0 16 0C16.0753 0 16.1468 0.0202661 16.2145 0.0607982C16.2821 0.101339 16.3326 0.163892 16.366 0.248454L17.2809 2.52237L19.6377 2.73833C19.729 2.75301 19.801 2.78428 19.8536 2.83215C19.9063 2.88003 19.9466 2.94171 19.9746 3.01719C20.0026 3.09267 20.0074 3.17042 19.9891 3.25045C19.9708 3.33047 19.9283 3.40088 19.8616 3.46168L18.0758 5.08247L18.6127 7.49056C18.6354 7.58072 18.6301 7.66301 18.5967 7.73744C18.5634 7.81188 18.5161 7.87216 18.4548 7.91829C18.3934 7.96441 18.3249 7.99115 18.2493 7.99849C18.1736 8.00582 18.0981 7.98643 18.0228 7.9403L16 6.6613Z" fill="#0354F5"/>
<path d="M28 6.6613L25.9772 7.9403C25.9019 7.98643 25.8264 8.00582 25.7507 7.99849C25.6751 7.99115 25.6066 7.96441 25.5452 7.91829C25.4839 7.87216 25.4366 7.81188 25.4033 7.73744C25.3699 7.66301 25.3646 7.58072 25.3873 7.49056L25.9242 5.08247L24.1384 3.46168C24.0717 3.40088 24.0292 3.33047 24.0109 3.25045C23.9926 3.17042 23.9974 3.09267 24.0254 3.01719C24.0534 2.94171 24.0937 2.88003 24.1464 2.83215C24.199 2.78428 24.271 2.75301 24.3623 2.73833L26.7191 2.52237L27.634 0.248454C27.6674 0.163892 27.7179 0.101339 27.7855 0.0607982C27.8532 0.0202661 27.9247 0 28 0C28.0753 0 28.1468 0.0202661 28.2145 0.0607982C28.2821 0.101339 28.3326 0.163892 28.366 0.248454L29.2809 2.52237L31.6377 2.73833C31.729 2.75301 31.801 2.78428 31.8536 2.83215C31.9063 2.88003 31.9466 2.94171 31.9746 3.01719C32.0026 3.09267 32.0074 3.17042 31.9891 3.25045C31.9708 3.33047 31.9283 3.40088 31.8616 3.46168L30.0758 5.08247L30.6127 7.49056C30.6354 7.58072 30.6301 7.66301 30.5967 7.73744C30.5634 7.81188 30.5161 7.87216 30.4548 7.91829C30.3934 7.96441 30.3249 7.99115 30.2493 7.99849C30.1736 8.00582 30.0981 7.98643 30.0228 7.9403L28 6.6613Z" fill="#0354F5"/>
<path d="M40 6.6613L37.9772 7.9403C37.9019 7.98643 37.8264 8.00582 37.7507 7.99849C37.6751 7.99115 37.6066 7.96441 37.5452 7.91829C37.4839 7.87216 37.4366 7.81188 37.4033 7.73744C37.3699 7.66301 37.3646 7.58072 37.3873 7.49056L37.9242 5.08247L36.1384 3.46168C36.0717 3.40088 36.0292 3.33047 36.0109 3.25045C35.9926 3.17042 35.9974 3.09267 36.0254 3.01719C36.0534 2.94171 36.0937 2.88003 36.1464 2.83215C36.199 2.78428 36.271 2.75301 36.3623 2.73833L38.7191 2.52237L39.634 0.248454C39.6674 0.163892 39.7179 0.101339 39.7855 0.0607982C39.8532 0.0202661 39.9247 0 40 0C40.0753 0 40.1468 0.0202661 40.2145 0.0607982C40.2821 0.101339 40.3326 0.163892 40.366 0.248454L41.2809 2.52237L43.6377 2.73833C43.729 2.75301 43.801 2.78428 43.8536 2.83215C43.9063 2.88003 43.9466 2.94171 43.9746 3.01719C44.0026 3.09267 44.0074 3.17042 43.9891 3.25045C43.9708 3.33047 43.9283 3.40088 43.8616 3.46168L42.0758 5.08247L42.6127 7.49056C42.6354 7.58072 42.6301 7.66301 42.5967 7.73744C42.5634 7.81188 42.5161 7.87216 42.4548 7.91829C42.3934 7.96441 42.3249 7.99115 42.2493 7.99849C42.1736 8.00582 42.0981 7.98643 42.0228 7.9403L40 6.6613Z" fill="#0354F5"/>
<path d="M52 6.6613L49.9772 7.9403C49.9019 7.98643 49.8264 8.00582 49.7507 7.99849C49.6751 7.99115 49.6066 7.96441 49.5452 7.91829C49.4839 7.87216 49.4366 7.81188 49.4033 7.73744C49.3699 7.66301 49.3646 7.58072 49.3873 7.49056L49.9242 5.08247L48.1384 3.46168C48.0717 3.40088 48.0292 3.33047 48.0109 3.25045C47.9926 3.17042 47.9974 3.09267 48.0254 3.01719C48.0534 2.94171 48.0937 2.88003 48.1464 2.83215C48.199 2.78428 48.271 2.75301 48.3623 2.73833L50.7191 2.52237L51.634 0.248454C51.6674 0.163892 51.7179 0.101339 51.7855 0.0607982C51.8532 0.0202661 51.9247 0 52 0C52.0753 0 52.1468 0.0202661 52.2145 0.0607982C52.2821 0.101339 52.3326 0.163892 52.366 0.248454L53.2809 2.52237L55.6377 2.73833C55.729 2.75301 55.801 2.78428 55.8536 2.83215C55.9063 2.88003 55.9466 2.94171 55.9746 3.01719C56.0026 3.09267 56.0074 3.17042 55.9891 3.25045C55.9708 3.33047 55.9283 3.40088 55.8616 3.46168L54.0758 5.08247L54.6127 7.49056C54.6354 7.58072 54.6301 7.66301 54.5967 7.73744C54.5634 7.81188 54.5161 7.87216 54.4548 7.91829C54.3934 7.96441 54.3249 7.99115 54.2493 7.99849C54.1736 8.00582 54.0981 7.98643 54.0228 7.9403L52 6.6613Z" fill="#0354F5" fill-opacity="0.3"/>
</svg>
