<svg width="116" height="159" viewBox="0 0 116 159" fill="none" xmlns="http://www.w3.org/2000/svg">
<g filter="url(#filter0_d_832_5891)">
<g clip-path="url(#clip0_832_5891)">
<rect x="10" y="5" width="120" height="139" rx="16" fill="white"/>
<rect x="26" y="21" width="31" height="31" rx="15.5" fill="#A707F3"/>
<path d="M40.3771 42.232C39.6091 42.232 38.9504 42.0187 38.4011 41.592C37.8517 41.1653 37.4811 40.5947 37.2891 39.88L38.4651 39.6C38.5611 40.0213 38.7824 40.3787 39.1291 40.672C39.4811 40.96 39.8944 41.104 40.3691 41.104C40.6677 41.104 40.9691 41.032 41.2731 40.888C41.5824 40.744 41.8251 40.5067 42.0011 40.176C42.1184 39.9467 42.1851 39.6987 42.2011 39.432C42.2224 39.16 42.2331 38.8347 42.2331 38.456V30.48H43.4171V38.456C43.4171 38.776 43.4144 39.0667 43.4091 39.328C43.4037 39.584 43.3744 39.832 43.3211 40.072C43.2731 40.3067 43.1797 40.544 43.0411 40.784C42.7637 41.2693 42.3904 41.632 41.9211 41.872C41.4571 42.112 40.9424 42.232 40.3771 42.232Z" fill="white"/>
<path d="M26.96 87V78.36H27.842V87H26.96ZM33.1688 87C32.8048 87.076 32.4448 87.106 32.0888 87.09C31.7368 87.074 31.4208 86.998 31.1408 86.862C30.8648 86.726 30.6548 86.514 30.5108 86.226C30.3948 85.986 30.3308 85.744 30.3188 85.5C30.3108 85.252 30.3068 84.97 30.3068 84.654V78.72H31.1828V84.618C31.1828 84.89 31.1848 85.118 31.1888 85.302C31.1968 85.482 31.2388 85.642 31.3148 85.782C31.4588 86.05 31.6868 86.21 31.9988 86.262C32.3148 86.314 32.7048 86.302 33.1688 86.226V87ZM28.9208 81.276V80.52H33.1688V81.276H28.9208ZM34.4455 80.88L34.4995 80.442C34.6595 80.454 34.7755 80.422 34.8475 80.346C34.9195 80.27 34.9635 80.168 34.9795 80.04C34.9955 79.912 34.9995 79.774 34.9915 79.626H34.4455V78.36H35.4715V79.866C35.4715 80.234 35.3775 80.51 35.1895 80.694C35.0055 80.878 34.7575 80.94 34.4455 80.88ZM38.5627 87.174C37.8027 87.174 37.1767 87.01 36.6847 86.682C36.1967 86.354 35.8967 85.898 35.7847 85.314L36.6847 85.164C36.7807 85.532 36.9987 85.826 37.3387 86.046C37.6827 86.262 38.1067 86.37 38.6107 86.37C39.1027 86.37 39.4907 86.268 39.7747 86.064C40.0587 85.856 40.2007 85.574 40.2007 85.218C40.2007 85.018 40.1547 84.856 40.0627 84.732C39.9747 84.604 39.7927 84.486 39.5167 84.378C39.2407 84.27 38.8287 84.142 38.2807 83.994C37.6927 83.834 37.2327 83.674 36.9007 83.514C36.5687 83.354 36.3327 83.17 36.1927 82.962C36.0527 82.75 35.9827 82.492 35.9827 82.188C35.9827 81.82 36.0867 81.498 36.2947 81.222C36.5027 80.942 36.7907 80.726 37.1587 80.574C37.5267 80.418 37.9547 80.34 38.4427 80.34C38.9307 80.34 39.3667 80.42 39.7507 80.58C40.1387 80.736 40.4507 80.956 40.6867 81.24C40.9227 81.524 41.0627 81.854 41.1067 82.23L40.2067 82.392C40.1467 82.012 39.9567 81.712 39.6367 81.492C39.3207 81.268 38.9187 81.152 38.4307 81.144C37.9707 81.132 37.5967 81.22 37.3087 81.408C37.0207 81.592 36.8767 81.838 36.8767 82.146C36.8767 82.318 36.9287 82.466 37.0327 82.59C37.1367 82.71 37.3247 82.824 37.5967 82.932C37.8727 83.04 38.2647 83.158 38.7727 83.286C39.3687 83.438 39.8367 83.598 40.1767 83.766C40.5167 83.934 40.7587 84.132 40.9027 84.36C41.0467 84.588 41.1187 84.87 41.1187 85.206C41.1187 85.818 40.8907 86.3 40.4347 86.652C39.9827 87 39.3587 87.174 38.5627 87.174ZM46.7057 87.18C46.2177 87.18 45.8077 87.092 45.4757 86.916C45.1477 86.74 44.9017 86.506 44.7377 86.214C44.5737 85.922 44.4917 85.604 44.4917 85.26C44.4917 84.908 44.5617 84.608 44.7017 84.36C44.8457 84.108 45.0397 83.902 45.2837 83.742C45.5317 83.582 45.8177 83.46 46.1417 83.376C46.4697 83.296 46.8317 83.226 47.2277 83.166C47.6277 83.102 48.0177 83.048 48.3977 83.004C48.7817 82.956 49.1177 82.91 49.4057 82.866L49.0937 83.058C49.1057 82.418 48.9817 81.944 48.7217 81.636C48.4617 81.328 48.0097 81.174 47.3657 81.174C46.9217 81.174 46.5457 81.274 46.2377 81.474C45.9337 81.674 45.7197 81.99 45.5957 82.422L44.7377 82.17C44.8857 81.59 45.1837 81.14 45.6317 80.82C46.0797 80.5 46.6617 80.34 47.3777 80.34C47.9697 80.34 48.4717 80.452 48.8837 80.676C49.2997 80.896 49.5937 81.216 49.7657 81.636C49.8457 81.824 49.8977 82.034 49.9217 82.266C49.9457 82.498 49.9577 82.734 49.9577 82.974V87H49.1717V85.374L49.3997 85.47C49.1797 86.026 48.8377 86.45 48.3737 86.742C47.9097 87.034 47.3537 87.18 46.7057 87.18ZM46.8077 86.418C47.2197 86.418 47.5797 86.344 47.8877 86.196C48.1957 86.048 48.4437 85.846 48.6317 85.59C48.8197 85.33 48.9417 85.038 48.9977 84.714C49.0457 84.506 49.0717 84.278 49.0757 84.03C49.0797 83.778 49.0817 83.59 49.0817 83.466L49.4177 83.64C49.1177 83.68 48.7917 83.72 48.4397 83.76C48.0917 83.8 47.7477 83.846 47.4077 83.898C47.0717 83.95 46.7677 84.012 46.4957 84.084C46.3117 84.136 46.1337 84.21 45.9617 84.306C45.7897 84.398 45.6477 84.522 45.5357 84.678C45.4277 84.834 45.3737 85.028 45.3737 85.26C45.3737 85.448 45.4197 85.63 45.5117 85.806C45.6077 85.982 45.7597 86.128 45.9677 86.244C46.1797 86.36 46.4597 86.418 46.8077 86.418ZM56.496 90.06C56.164 90.06 55.836 90.01 55.512 89.91C55.192 89.814 54.896 89.66 54.624 89.448C54.352 89.24 54.124 88.968 53.94 88.632L54.738 88.188C54.918 88.548 55.17 88.806 55.494 88.962C55.822 89.122 56.156 89.202 56.496 89.202C56.964 89.202 57.342 89.114 57.63 88.938C57.922 88.766 58.134 88.51 58.266 88.17C58.398 87.83 58.462 87.406 58.458 86.898V85.17H58.56V80.52H59.346V86.91C59.346 87.094 59.34 87.27 59.328 87.438C59.32 87.61 59.302 87.778 59.274 87.942C59.198 88.426 59.04 88.824 58.8 89.136C58.564 89.448 58.252 89.68 57.864 89.832C57.48 89.984 57.024 90.06 56.496 90.06ZM56.436 87.18C55.832 87.18 55.316 87.03 54.888 86.73C54.46 86.426 54.132 86.016 53.904 85.5C53.676 84.984 53.562 84.402 53.562 83.754C53.562 83.11 53.674 82.53 53.898 82.014C54.126 81.498 54.452 81.09 54.876 80.79C55.3 80.49 55.808 80.34 56.4 80.34C57.008 80.34 57.52 80.488 57.936 80.784C58.352 81.08 58.666 81.486 58.878 82.002C59.094 82.514 59.202 83.098 59.202 83.754C59.202 84.398 59.096 84.98 58.884 85.5C58.672 86.016 58.36 86.426 57.948 86.73C57.536 87.03 57.032 87.18 56.436 87.18ZM56.526 86.358C56.986 86.358 57.366 86.246 57.666 86.022C57.966 85.798 58.19 85.49 58.338 85.098C58.486 84.702 58.56 84.254 58.56 83.754C58.56 83.246 58.486 82.798 58.338 82.41C58.19 82.018 57.966 81.712 57.666 81.492C57.37 81.272 56.996 81.162 56.544 81.162C56.08 81.162 55.696 81.276 55.392 81.504C55.088 81.732 54.862 82.042 54.714 82.434C54.57 82.826 54.498 83.266 54.498 83.754C54.498 84.246 54.572 84.69 54.72 85.086C54.872 85.478 55.098 85.788 55.398 86.016C55.698 86.244 56.074 86.358 56.526 86.358ZM63.7296 87.18C63.0856 87.18 62.5356 87.034 62.0796 86.742C61.6236 86.45 61.2736 86.046 61.0296 85.53C60.7856 85.014 60.6636 84.422 60.6636 83.754C60.6636 83.074 60.7876 82.478 61.0356 81.966C61.2836 81.454 61.6356 81.056 62.0916 80.772C62.5516 80.484 63.0976 80.34 63.7296 80.34C64.3776 80.34 64.9296 80.486 65.3856 80.778C65.8456 81.066 66.1956 81.468 66.4356 81.984C66.6796 82.496 66.8016 83.086 66.8016 83.754C66.8016 84.434 66.6796 85.032 66.4356 85.548C66.1916 86.06 65.8396 86.46 65.3796 86.748C64.9196 87.036 64.3696 87.18 63.7296 87.18ZM63.7296 86.334C64.4496 86.334 64.9856 86.096 65.3376 85.62C65.6896 85.14 65.8656 84.518 65.8656 83.754C65.8656 82.97 65.6876 82.346 65.3316 81.882C64.9796 81.418 64.4456 81.186 63.7296 81.186C63.2456 81.186 62.8456 81.296 62.5296 81.516C62.2176 81.732 61.9836 82.034 61.8276 82.422C61.6756 82.806 61.5996 83.25 61.5996 83.754C61.5996 84.534 61.7796 85.16 62.1396 85.632C62.4996 86.1 63.0296 86.334 63.7296 86.334ZM70.8312 87.18C70.1872 87.18 69.6372 87.034 69.1812 86.742C68.7252 86.45 68.3752 86.046 68.1312 85.53C67.8872 85.014 67.7652 84.422 67.7652 83.754C67.7652 83.074 67.8892 82.478 68.1372 81.966C68.3852 81.454 68.7372 81.056 69.1932 80.772C69.6532 80.484 70.1992 80.34 70.8312 80.34C71.4792 80.34 72.0312 80.486 72.4872 80.778C72.9472 81.066 73.2972 81.468 73.5372 81.984C73.7812 82.496 73.9032 83.086 73.9032 83.754C73.9032 84.434 73.7812 85.032 73.5372 85.548C73.2932 86.06 72.9412 86.46 72.4812 86.748C72.0212 87.036 71.4712 87.18 70.8312 87.18ZM70.8312 86.334C71.5512 86.334 72.0872 86.096 72.4392 85.62C72.7912 85.14 72.9672 84.518 72.9672 83.754C72.9672 82.97 72.7892 82.346 72.4332 81.882C72.0812 81.418 71.5472 81.186 70.8312 81.186C70.3472 81.186 69.9472 81.296 69.6312 81.516C69.3192 81.732 69.0852 82.034 68.9292 82.422C68.7772 82.806 68.7012 83.25 68.7012 83.754C68.7012 84.534 68.8812 85.16 69.2412 85.632C69.6012 86.1 70.1312 86.334 70.8312 86.334ZM77.7407 87.18C77.1367 87.18 76.6207 87.03 76.1927 86.73C75.7647 86.426 75.4367 86.016 75.2087 85.5C74.9807 84.984 74.8667 84.402 74.8667 83.754C74.8667 83.11 74.9787 82.53 75.2027 82.014C75.4307 81.498 75.7567 81.09 76.1807 80.79C76.6047 80.49 77.1127 80.34 77.7047 80.34C78.3127 80.34 78.8247 80.488 79.2407 80.784C79.6567 81.08 79.9707 81.486 80.1827 82.002C80.3987 82.514 80.5067 83.098 80.5067 83.754C80.5067 84.398 80.4007 84.98 80.1887 85.5C79.9767 86.016 79.6647 86.426 79.2527 86.73C78.8407 87.03 78.3367 87.18 77.7407 87.18ZM77.8307 86.358C78.2907 86.358 78.6707 86.246 78.9707 86.022C79.2707 85.798 79.4947 85.49 79.6427 85.098C79.7907 84.702 79.8647 84.254 79.8647 83.754C79.8647 83.246 79.7907 82.798 79.6427 82.41C79.4947 82.018 79.2707 81.712 78.9707 81.492C78.6747 81.272 78.3007 81.162 77.8487 81.162C77.3847 81.162 77.0007 81.276 76.6967 81.504C76.3927 81.732 76.1667 82.042 76.0187 82.434C75.8747 82.826 75.8027 83.266 75.8027 83.754C75.8027 84.246 75.8767 84.69 76.0247 85.086C76.1767 85.478 76.4027 85.788 76.7027 86.016C77.0027 86.244 77.3787 86.358 77.8307 86.358ZM79.8647 87V82.122H79.7687V78.36H80.6567V87H79.8647ZM86.5963 87.18C86.1083 87.18 85.6983 87.092 85.3663 86.916C85.0383 86.74 84.7923 86.506 84.6283 86.214C84.4643 85.922 84.3823 85.604 84.3823 85.26C84.3823 84.908 84.4523 84.608 84.5923 84.36C84.7363 84.108 84.9303 83.902 85.1743 83.742C85.4223 83.582 85.7083 83.46 86.0323 83.376C86.3603 83.296 86.7223 83.226 87.1183 83.166C87.5183 83.102 87.9083 83.048 88.2883 83.004C88.6723 82.956 89.0083 82.91 89.2963 82.866L88.9843 83.058C88.9963 82.418 88.8723 81.944 88.6123 81.636C88.3523 81.328 87.9003 81.174 87.2563 81.174C86.8123 81.174 86.4363 81.274 86.1283 81.474C85.8243 81.674 85.6103 81.99 85.4863 82.422L84.6283 82.17C84.7763 81.59 85.0743 81.14 85.5223 80.82C85.9703 80.5 86.5523 80.34 87.2683 80.34C87.8603 80.34 88.3623 80.452 88.7743 80.676C89.1903 80.896 89.4843 81.216 89.6563 81.636C89.7363 81.824 89.7883 82.034 89.8123 82.266C89.8363 82.498 89.8483 82.734 89.8483 82.974V87H89.0623V85.374L89.2903 85.47C89.0703 86.026 88.7283 86.45 88.2643 86.742C87.8003 87.034 87.2443 87.18 86.5963 87.18ZM86.6983 86.418C87.1103 86.418 87.4703 86.344 87.7783 86.196C88.0863 86.048 88.3343 85.846 88.5223 85.59C88.7103 85.33 88.8323 85.038 88.8883 84.714C88.9363 84.506 88.9623 84.278 88.9663 84.03C88.9703 83.778 88.9723 83.59 88.9723 83.466L89.3083 83.64C89.0083 83.68 88.6823 83.72 88.3303 83.76C87.9823 83.8 87.6383 83.846 87.2983 83.898C86.9623 83.95 86.6583 84.012 86.3863 84.084C86.2023 84.136 86.0243 84.21 85.8523 84.306C85.6803 84.398 85.5383 84.522 85.4263 84.678C85.3183 84.834 85.2643 85.028 85.2643 85.26C85.2643 85.448 85.3103 85.63 85.4023 85.806C85.4983 85.982 85.6503 86.128 85.8583 86.244C86.0703 86.36 86.3503 86.418 86.6983 86.418ZM94.3203 87.18C93.7243 87.18 93.2203 87.03 92.8083 86.73C92.3963 86.426 92.0843 86.016 91.8723 85.5C91.6603 84.98 91.5543 84.398 91.5543 83.754C91.5543 83.098 91.6603 82.514 91.8723 82.002C92.0883 81.486 92.4043 81.08 92.8203 80.784C93.2363 80.488 93.7483 80.34 94.3563 80.34C94.9483 80.34 95.4563 80.49 95.8803 80.79C96.3043 81.09 96.6283 81.498 96.8523 82.014C97.0803 82.53 97.1943 83.11 97.1943 83.754C97.1943 84.402 97.0803 84.984 96.8523 85.5C96.6243 86.016 96.2963 86.426 95.8683 86.73C95.4403 87.03 94.9243 87.18 94.3203 87.18ZM91.4043 89.88V80.52H92.1963V85.398H92.2923V89.88H91.4043ZM94.2303 86.358C94.6823 86.358 95.0583 86.244 95.3583 86.016C95.6583 85.788 95.8823 85.478 96.0303 85.086C96.1823 84.69 96.2583 84.246 96.2583 83.754C96.2583 83.266 96.1843 82.826 96.0363 82.434C95.8883 82.042 95.6623 81.732 95.3583 81.504C95.0583 81.276 94.6763 81.162 94.2123 81.162C93.7603 81.162 93.3843 81.272 93.0843 81.492C92.7883 81.712 92.5663 82.018 92.4183 82.41C92.2703 82.798 92.1963 83.246 92.1963 83.754C92.1963 84.254 92.2703 84.702 92.4183 85.098C92.5663 85.49 92.7903 85.798 93.0903 86.022C93.3903 86.246 93.7703 86.358 94.2303 86.358ZM101.422 87.18C100.826 87.18 100.322 87.03 99.9099 86.73C99.4979 86.426 99.1859 86.016 98.9739 85.5C98.7619 84.98 98.6559 84.398 98.6559 83.754C98.6559 83.098 98.7619 82.514 98.9739 82.002C99.1899 81.486 99.5059 81.08 99.9219 80.784C100.338 80.488 100.85 80.34 101.458 80.34C102.05 80.34 102.558 80.49 102.982 80.79C103.406 81.09 103.73 81.498 103.954 82.014C104.182 82.53 104.296 83.11 104.296 83.754C104.296 84.402 104.182 84.984 103.954 85.5C103.726 86.016 103.398 86.426 102.97 86.73C102.542 87.03 102.026 87.18 101.422 87.18ZM98.5059 89.88V80.52H99.2979V85.398H99.3939V89.88H98.5059ZM101.332 86.358C101.784 86.358 102.16 86.244 102.46 86.016C102.76 85.788 102.984 85.478 103.132 85.086C103.284 84.69 103.36 84.246 103.36 83.754C103.36 83.266 103.286 82.826 103.138 82.434C102.99 82.042 102.764 81.732 102.46 81.504C102.16 81.276 101.778 81.162 101.314 81.162C100.862 81.162 100.486 81.272 100.186 81.492C99.8899 81.712 99.6679 82.018 99.5199 82.41C99.3719 82.798 99.2979 83.246 99.2979 83.754C99.2979 84.254 99.3719 84.702 99.5199 85.098C99.6679 85.49 99.8919 85.798 100.192 86.022C100.492 86.246 100.872 86.358 101.332 86.358ZM109.396 87L107.416 80.514L108.298 80.52L109.834 85.554L111.376 80.52H112.18L113.722 85.554L115.27 80.52H116.146L114.166 87H113.398L111.778 81.84L110.164 87H109.396ZM117.347 79.29V78.3H118.229V79.29H117.347ZM117.347 87V80.52H118.229V87H117.347ZM123.556 87C123.192 87.076 122.832 87.106 122.476 87.09C122.124 87.074 121.808 86.998 121.528 86.862C121.252 86.726 121.042 86.514 120.898 86.226C120.782 85.986 120.718 85.744 120.706 85.5C120.698 85.252 120.694 84.97 120.694 84.654V78.72H121.57V84.618C121.57 84.89 121.572 85.118 121.576 85.302C121.584 85.482 121.626 85.642 121.702 85.782C121.846 86.05 122.074 86.21 122.386 86.262C122.702 86.314 123.092 86.302 123.556 86.226V87ZM119.308 81.276V80.52H123.556V81.276H119.308ZM129.512 87V83.694C129.512 83.334 129.478 83.004 129.41 82.704C129.342 82.4 129.232 82.136 129.08 81.912C128.932 81.684 128.738 81.508 128.498 81.384C128.262 81.26 127.974 81.198 127.634 81.198C127.322 81.198 127.046 81.252 126.806 81.36C126.57 81.468 126.37 81.624 126.206 81.828C126.046 82.028 125.924 82.272 125.84 82.56C125.756 82.848 125.714 83.176 125.714 83.544L125.09 83.406C125.09 82.742 125.206 82.184 125.438 81.732C125.67 81.28 125.99 80.938 126.398 80.706C126.806 80.474 127.274 80.358 127.802 80.358C128.19 80.358 128.528 80.418 128.816 80.538C129.108 80.658 129.354 80.82 129.554 81.024C129.758 81.228 129.922 81.462 130.046 81.726C130.17 81.986 130.26 82.264 130.316 82.56C130.372 82.852 130.4 83.144 130.4 83.436V87H129.512ZM124.826 87V78.36H125.624V83.238H125.714V87H124.826ZM134.48 87V78.18H135.362V87H134.48ZM139.866 87.18C139.222 87.18 138.672 87.034 138.216 86.742C137.76 86.45 137.41 86.046 137.166 85.53C136.922 85.014 136.8 84.422 136.8 83.754C136.8 83.074 136.924 82.478 137.172 81.966C137.42 81.454 137.772 81.056 138.228 80.772C138.688 80.484 139.234 80.34 139.866 80.34C140.514 80.34 141.066 80.486 141.522 80.778C141.982 81.066 142.332 81.468 142.572 81.984C142.816 82.496 142.938 83.086 142.938 83.754C142.938 84.434 142.816 85.032 142.572 85.548C142.328 86.06 141.976 86.46 141.516 86.748C141.056 87.036 140.506 87.18 139.866 87.18ZM139.866 86.334C140.586 86.334 141.122 86.096 141.474 85.62C141.826 85.14 142.002 84.518 142.002 83.754C142.002 82.97 141.824 82.346 141.468 81.882C141.116 81.418 140.582 81.186 139.866 81.186C139.382 81.186 138.982 81.296 138.666 81.516C138.354 81.732 138.12 82.034 137.964 82.422C137.812 82.806 137.736 83.25 137.736 83.754C137.736 84.534 137.916 85.16 138.276 85.632C138.636 86.1 139.166 86.334 139.866 86.334ZM147.79 87C147.426 87.076 147.066 87.106 146.71 87.09C146.358 87.074 146.042 86.998 145.762 86.862C145.486 86.726 145.276 86.514 145.132 86.226C145.016 85.986 144.952 85.744 144.94 85.5C144.932 85.252 144.928 84.97 144.928 84.654V78.72H145.804V84.618C145.804 84.89 145.806 85.118 145.81 85.302C145.818 85.482 145.86 85.642 145.936 85.782C146.08 86.05 146.308 86.21 146.62 86.262C146.936 86.314 147.326 86.302 147.79 86.226V87ZM143.542 81.276V80.52H147.79V81.276H143.542ZM151.485 87.174C150.725 87.174 150.099 87.01 149.607 86.682C149.119 86.354 148.819 85.898 148.707 85.314L149.607 85.164C149.703 85.532 149.921 85.826 150.261 86.046C150.605 86.262 151.029 86.37 151.533 86.37C152.025 86.37 152.413 86.268 152.697 86.064C152.981 85.856 153.123 85.574 153.123 85.218C153.123 85.018 153.077 84.856 152.985 84.732C152.897 84.604 152.715 84.486 152.439 84.378C152.163 84.27 151.751 84.142 151.203 83.994C150.615 83.834 150.155 83.674 149.823 83.514C149.491 83.354 149.255 83.17 149.115 82.962C148.975 82.75 148.905 82.492 148.905 82.188C148.905 81.82 149.009 81.498 149.217 81.222C149.425 80.942 149.713 80.726 150.081 80.574C150.449 80.418 150.877 80.34 151.365 80.34C151.853 80.34 152.289 80.42 152.673 80.58C153.061 80.736 153.373 80.956 153.609 81.24C153.845 81.524 153.985 81.854 154.029 82.23L153.129 82.392C153.069 82.012 152.879 81.712 152.559 81.492C152.243 81.268 151.841 81.152 151.353 81.144C150.893 81.132 150.519 81.22 150.231 81.408C149.943 81.592 149.799 81.838 149.799 82.146C149.799 82.318 149.851 82.466 149.955 82.59C150.059 82.71 150.247 82.824 150.519 82.932C150.795 83.04 151.187 83.158 151.695 83.286C152.291 83.438 152.759 83.598 153.099 83.766C153.439 83.934 153.681 84.132 153.825 84.36C153.969 84.588 154.041 84.87 154.041 85.206C154.041 85.818 153.813 86.3 153.357 86.652C152.905 87 152.281 87.174 151.485 87.174ZM160.48 87.18C159.836 87.18 159.286 87.034 158.83 86.742C158.374 86.45 158.024 86.046 157.78 85.53C157.536 85.014 157.414 84.422 157.414 83.754C157.414 83.074 157.538 82.478 157.786 81.966C158.034 81.454 158.386 81.056 158.842 80.772C159.302 80.484 159.848 80.34 160.48 80.34C161.128 80.34 161.68 80.486 162.136 80.778C162.596 81.066 162.946 81.468 163.186 81.984C163.43 82.496 163.552 83.086 163.552 83.754C163.552 84.434 163.43 85.032 163.186 85.548C162.942 86.06 162.59 86.46 162.13 86.748C161.67 87.036 161.12 87.18 160.48 87.18ZM160.48 86.334C161.2 86.334 161.736 86.096 162.088 85.62C162.44 85.14 162.616 84.518 162.616 83.754C162.616 82.97 162.438 82.346 162.082 81.882C161.73 81.418 161.196 81.186 160.48 81.186C159.996 81.186 159.596 81.296 159.28 81.516C158.968 81.732 158.734 82.034 158.578 82.422C158.426 82.806 158.35 83.25 158.35 83.754C158.35 84.534 158.53 85.16 158.89 85.632C159.25 86.1 159.78 86.334 160.48 86.334ZM165.517 87V80.04C165.517 79.872 165.525 79.706 165.541 79.542C165.561 79.378 165.599 79.222 165.655 79.074C165.711 78.922 165.799 78.782 165.919 78.654C166.051 78.51 166.195 78.406 166.351 78.342C166.507 78.274 166.669 78.23 166.837 78.21C167.009 78.19 167.177 78.18 167.341 78.18H168.169V78.924H167.401C167.065 78.924 166.813 79.006 166.645 79.17C166.481 79.334 166.399 79.592 166.399 79.944V87H165.517ZM164.395 81.276V80.52H168.169V81.276H164.395ZM172.173 87V80.04C172.173 79.872 172.181 79.706 172.197 79.542C172.217 79.378 172.255 79.222 172.311 79.074C172.367 78.922 172.455 78.782 172.575 78.654C172.707 78.51 172.851 78.406 173.007 78.342C173.163 78.274 173.325 78.23 173.493 78.21C173.665 78.19 173.833 78.18 173.997 78.18H174.825V78.924H174.057C173.721 78.924 173.469 79.006 173.301 79.17C173.137 79.334 173.055 79.592 173.055 79.944V87H172.173ZM171.051 81.276V80.52H174.825V81.276H171.051ZM178.293 87.18C177.661 87.18 177.113 87.04 176.649 86.76C176.189 86.48 175.831 86.086 175.575 85.578C175.319 85.07 175.191 84.474 175.191 83.79C175.191 83.082 175.317 82.47 175.569 81.954C175.821 81.438 176.175 81.04 176.631 80.76C177.091 80.48 177.633 80.34 178.257 80.34C178.897 80.34 179.443 80.488 179.895 80.784C180.347 81.076 180.689 81.496 180.921 82.044C181.153 82.592 181.259 83.246 181.239 84.006H180.339V83.694C180.323 82.854 180.141 82.22 179.793 81.792C179.449 81.364 178.945 81.15 178.281 81.15C177.585 81.15 177.051 81.376 176.679 81.828C176.311 82.28 176.127 82.924 176.127 83.76C176.127 84.576 176.311 85.21 176.679 85.662C177.051 86.11 177.577 86.334 178.257 86.334C178.721 86.334 179.125 86.228 179.469 86.016C179.817 85.8 180.091 85.49 180.291 85.086L181.113 85.404C180.857 85.968 180.479 86.406 179.979 86.718C179.483 87.026 178.921 87.18 178.293 87.18ZM175.815 84.006V83.268H180.765V84.006H175.815ZM184.307 87.18C183.819 87.18 183.409 87.092 183.077 86.916C182.749 86.74 182.503 86.506 182.339 86.214C182.175 85.922 182.093 85.604 182.093 85.26C182.093 84.908 182.163 84.608 182.303 84.36C182.447 84.108 182.641 83.902 182.885 83.742C183.133 83.582 183.419 83.46 183.743 83.376C184.071 83.296 184.433 83.226 184.829 83.166C185.229 83.102 185.619 83.048 185.999 83.004C186.383 82.956 186.719 82.91 187.007 82.866L186.695 83.058C186.707 82.418 186.583 81.944 186.323 81.636C186.063 81.328 185.611 81.174 184.967 81.174C184.523 81.174 184.147 81.274 183.839 81.474C183.535 81.674 183.321 81.99 183.197 82.422L182.339 82.17C182.487 81.59 182.785 81.14 183.233 80.82C183.681 80.5 184.263 80.34 184.979 80.34C185.571 80.34 186.073 80.452 186.485 80.676C186.901 80.896 187.195 81.216 187.367 81.636C187.447 81.824 187.499 82.034 187.523 82.266C187.547 82.498 187.559 82.734 187.559 82.974V87H186.773V85.374L187.001 85.47C186.781 86.026 186.439 86.45 185.975 86.742C185.511 87.034 184.955 87.18 184.307 87.18ZM184.409 86.418C184.821 86.418 185.181 86.344 185.489 86.196C185.797 86.048 186.045 85.846 186.233 85.59C186.421 85.33 186.543 85.038 186.599 84.714C186.647 84.506 186.673 84.278 186.677 84.03C186.681 83.778 186.683 83.59 186.683 83.466L187.019 83.64C186.719 83.68 186.393 83.72 186.041 83.76C185.693 83.8 185.349 83.846 185.009 83.898C184.673 83.95 184.369 84.012 184.097 84.084C183.913 84.136 183.735 84.21 183.563 84.306C183.391 84.398 183.249 84.522 183.137 84.678C183.029 84.834 182.975 85.028 182.975 85.26C182.975 85.448 183.021 85.63 183.113 85.806C183.209 85.982 183.361 86.128 183.569 86.244C183.781 86.36 184.061 86.418 184.409 86.418ZM192.649 87C192.285 87.076 191.925 87.106 191.569 87.09C191.217 87.074 190.901 86.998 190.621 86.862C190.345 86.726 190.135 86.514 189.991 86.226C189.875 85.986 189.811 85.744 189.799 85.5C189.791 85.252 189.787 84.97 189.787 84.654V78.72H190.663V84.618C190.663 84.89 190.665 85.118 190.669 85.302C190.677 85.482 190.719 85.642 190.795 85.782C190.939 86.05 191.167 86.21 191.479 86.262C191.795 86.314 192.185 86.302 192.649 86.226V87ZM188.401 81.276V80.52H192.649V81.276H188.401ZM196.404 87.162C196.016 87.162 195.676 87.102 195.384 86.982C195.096 86.862 194.85 86.7 194.646 86.496C194.446 86.292 194.284 86.06 194.16 85.8C194.036 85.536 193.946 85.258 193.89 84.966C193.834 84.67 193.806 84.376 193.806 84.084V80.52H194.694V83.826C194.694 84.182 194.728 84.512 194.796 84.816C194.864 85.12 194.972 85.386 195.12 85.614C195.272 85.838 195.466 86.012 195.702 86.136C195.942 86.26 196.232 86.322 196.572 86.322C196.884 86.322 197.158 86.268 197.394 86.16C197.634 86.052 197.834 85.898 197.994 85.698C198.158 85.494 198.282 85.248 198.366 84.96C198.45 84.668 198.492 84.34 198.492 83.976L199.116 84.114C199.116 84.778 199 85.336 198.768 85.788C198.536 86.24 198.216 86.582 197.808 86.814C197.4 87.046 196.932 87.162 196.404 87.162ZM198.582 87V85.404H198.492V80.52H199.374V87H198.582ZM201.051 87V80.52H201.843V82.08L201.687 81.876C201.759 81.684 201.853 81.508 201.969 81.348C202.085 81.184 202.211 81.05 202.347 80.946C202.515 80.798 202.711 80.686 202.935 80.61C203.159 80.53 203.385 80.484 203.613 80.472C203.841 80.456 204.049 80.472 204.237 80.52V81.348C204.001 81.288 203.743 81.274 203.463 81.306C203.183 81.338 202.925 81.45 202.689 81.642C202.473 81.81 202.311 82.012 202.203 82.248C202.095 82.48 202.023 82.728 201.987 82.992C201.951 83.252 201.933 83.51 201.933 83.766V87H201.051ZM208 87.18C207.368 87.18 206.82 87.04 206.356 86.76C205.896 86.48 205.538 86.086 205.282 85.578C205.026 85.07 204.898 84.474 204.898 83.79C204.898 83.082 205.024 82.47 205.276 81.954C205.528 81.438 205.882 81.04 206.338 80.76C206.798 80.48 207.34 80.34 207.964 80.34C208.604 80.34 209.15 80.488 209.602 80.784C210.054 81.076 210.396 81.496 210.628 82.044C210.86 82.592 210.966 83.246 210.946 84.006H210.046V83.694C210.03 82.854 209.848 82.22 209.5 81.792C209.156 81.364 208.652 81.15 207.988 81.15C207.292 81.15 206.758 81.376 206.386 81.828C206.018 82.28 205.834 82.924 205.834 83.76C205.834 84.576 206.018 85.21 206.386 85.662C206.758 86.11 207.284 86.334 207.964 86.334C208.428 86.334 208.832 86.228 209.176 86.016C209.524 85.8 209.798 85.49 209.998 85.086L210.82 85.404C210.564 85.968 210.186 86.406 209.686 86.718C209.19 87.026 208.628 87.18 208 87.18ZM205.522 84.006V83.268H210.472V84.006H205.522ZM214.696 87.174C213.936 87.174 213.31 87.01 212.818 86.682C212.33 86.354 212.03 85.898 211.918 85.314L212.818 85.164C212.914 85.532 213.132 85.826 213.472 86.046C213.816 86.262 214.24 86.37 214.743 86.37C215.236 86.37 215.624 86.268 215.908 86.064C216.192 85.856 216.334 85.574 216.334 85.218C216.334 85.018 216.288 84.856 216.196 84.732C216.108 84.604 215.926 84.486 215.65 84.378C215.374 84.27 214.962 84.142 214.414 83.994C213.826 83.834 213.366 83.674 213.034 83.514C212.702 83.354 212.466 83.17 212.326 82.962C212.186 82.75 212.116 82.492 212.116 82.188C212.116 81.82 212.22 81.498 212.428 81.222C212.636 80.942 212.924 80.726 213.292 80.574C213.66 80.418 214.088 80.34 214.576 80.34C215.064 80.34 215.5 80.42 215.884 80.58C216.272 80.736 216.584 80.956 216.82 81.24C217.056 81.524 217.196 81.854 217.24 82.23L216.34 82.392C216.28 82.012 216.09 81.712 215.77 81.492C215.454 81.268 215.052 81.152 214.564 81.144C214.104 81.132 213.73 81.22 213.442 81.408C213.154 81.592 213.01 81.838 213.01 82.146C213.01 82.318 213.062 82.466 213.166 82.59C213.27 82.71 213.458 82.824 213.73 82.932C214.006 83.04 214.398 83.158 214.906 83.286C215.502 83.438 215.97 83.598 216.31 83.766C216.65 83.934 216.892 84.132 217.036 84.36C217.18 84.588 217.252 84.87 217.252 85.206C217.252 85.818 217.024 86.3 216.568 86.652C216.116 87 215.492 87.174 214.696 87.174ZM218.75 87V85.974H219.776V87H218.75ZM224.151 87V78.36H225.033V87H224.151ZM29.318 107.162C28.93 107.162 28.59 107.102 28.298 106.982C28.01 106.862 27.764 106.7 27.56 106.496C27.36 106.292 27.198 106.06 27.074 105.8C26.95 105.536 26.86 105.258 26.804 104.966C26.748 104.67 26.72 104.376 26.72 104.084V100.52H27.608V103.826C27.608 104.182 27.642 104.512 27.71 104.816C27.778 105.12 27.886 105.386 28.034 105.614C28.186 105.838 28.38 106.012 28.616 106.136C28.856 106.26 29.146 106.322 29.486 106.322C29.798 106.322 30.072 106.268 30.308 106.16C30.548 106.052 30.748 105.898 30.908 105.698C31.072 105.494 31.196 105.248 31.28 104.96C31.364 104.668 31.406 104.34 31.406 103.976L32.03 104.114C32.03 104.778 31.914 105.336 31.682 105.788C31.45 106.24 31.13 106.582 30.722 106.814C30.314 107.046 29.846 107.162 29.318 107.162ZM31.496 107V105.404H31.406V100.52H32.288V107H31.496ZM36.383 107.174C35.623 107.174 34.997 107.01 34.505 106.682C34.017 106.354 33.717 105.898 33.605 105.314L34.505 105.164C34.601 105.532 34.819 105.826 35.159 106.046C35.503 106.262 35.927 106.37 36.431 106.37C36.923 106.37 37.311 106.268 37.595 106.064C37.879 105.856 38.021 105.574 38.021 105.218C38.021 105.018 37.975 104.856 37.883 104.732C37.795 104.604 37.613 104.486 37.337 104.378C37.061 104.27 36.649 104.142 36.101 103.994C35.513 103.834 35.053 103.674 34.721 103.514C34.389 103.354 34.153 103.17 34.013 102.962C33.873 102.75 33.803 102.492 33.803 102.188C33.803 101.82 33.907 101.498 34.115 101.222C34.323 100.942 34.611 100.726 34.979 100.574C35.347 100.418 35.775 100.34 36.263 100.34C36.751 100.34 37.187 100.42 37.571 100.58C37.959 100.736 38.271 100.956 38.507 101.24C38.743 101.524 38.883 101.854 38.927 102.23L38.027 102.392C37.967 102.012 37.777 101.712 37.457 101.492C37.141 101.268 36.739 101.152 36.251 101.144C35.791 101.132 35.417 101.22 35.129 101.408C34.841 101.592 34.697 101.838 34.697 102.146C34.697 102.318 34.749 102.466 34.853 102.59C34.957 102.71 35.145 102.824 35.417 102.932C35.693 103.04 36.085 103.158 36.593 103.286C37.189 103.438 37.657 103.598 37.997 103.766C38.337 103.934 38.579 104.132 38.723 104.36C38.867 104.588 38.939 104.87 38.939 105.206C38.939 105.818 38.711 106.3 38.255 106.652C37.803 107 37.179 107.174 36.383 107.174ZM43.0117 107.18C42.3797 107.18 41.8317 107.04 41.3677 106.76C40.9077 106.48 40.5497 106.086 40.2937 105.578C40.0377 105.07 39.9097 104.474 39.9097 103.79C39.9097 103.082 40.0357 102.47 40.2877 101.954C40.5397 101.438 40.8937 101.04 41.3497 100.76C41.8097 100.48 42.3517 100.34 42.9757 100.34C43.6157 100.34 44.1617 100.488 44.6137 100.784C45.0657 101.076 45.4077 101.496 45.6397 102.044C45.8717 102.592 45.9777 103.246 45.9577 104.006H45.0577V103.694C45.0417 102.854 44.8597 102.22 44.5117 101.792C44.1677 101.364 43.6637 101.15 42.9997 101.15C42.3037 101.15 41.7697 101.376 41.3977 101.828C41.0297 102.28 40.8457 102.924 40.8457 103.76C40.8457 104.576 41.0297 105.21 41.3977 105.662C41.7697 106.11 42.2957 106.334 42.9757 106.334C43.4397 106.334 43.8437 106.228 44.1877 106.016C44.5357 105.8 44.8097 105.49 45.0097 105.086L45.8317 105.404C45.5757 105.968 45.1977 106.406 44.6977 106.718C44.2017 107.026 43.6397 107.18 43.0117 107.18ZM40.5337 104.006V103.268H45.4837V104.006H40.5337ZM49.8116 99.29V98.3H50.6936V99.29H49.8116ZM49.8116 107V100.52H50.6936V107H49.8116ZM56.0203 107C55.6563 107.076 55.2963 107.106 54.9403 107.09C54.5883 107.074 54.2723 106.998 53.9923 106.862C53.7163 106.726 53.5063 106.514 53.3623 106.226C53.2463 105.986 53.1823 105.744 53.1703 105.5C53.1623 105.252 53.1583 104.97 53.1583 104.654V98.72H54.0343V104.618C54.0343 104.89 54.0363 105.118 54.0403 105.302C54.0483 105.482 54.0903 105.642 54.1663 105.782C54.3103 106.05 54.5383 106.21 54.8503 106.262C55.1663 106.314 55.5563 106.302 56.0203 106.226V107ZM51.7723 101.276V100.52H56.0203V101.276H51.7723ZM63.2274 107C62.8634 107.076 62.5034 107.106 62.1474 107.09C61.7954 107.074 61.4794 106.998 61.1994 106.862C60.9234 106.726 60.7134 106.514 60.5694 106.226C60.4534 105.986 60.3894 105.744 60.3774 105.5C60.3694 105.252 60.3654 104.97 60.3654 104.654V98.72H61.2414V104.618C61.2414 104.89 61.2434 105.118 61.2474 105.302C61.2554 105.482 61.2974 105.642 61.3734 105.782C61.5174 106.05 61.7454 106.21 62.0574 106.262C62.3734 106.314 62.7634 106.302 63.2274 106.226V107ZM58.9794 101.276V100.52H63.2274V101.276H58.9794ZM66.9757 107.18C66.3317 107.18 65.7817 107.034 65.3257 106.742C64.8697 106.45 64.5197 106.046 64.2757 105.53C64.0317 105.014 63.9097 104.422 63.9097 103.754C63.9097 103.074 64.0337 102.478 64.2817 101.966C64.5297 101.454 64.8817 101.056 65.3377 100.772C65.7977 100.484 66.3437 100.34 66.9757 100.34C67.6237 100.34 68.1757 100.486 68.6317 100.778C69.0917 101.066 69.4417 101.468 69.6817 101.984C69.9257 102.496 70.0477 103.086 70.0477 103.754C70.0477 104.434 69.9257 105.032 69.6817 105.548C69.4377 106.06 69.0857 106.46 68.6257 106.748C68.1657 107.036 67.6157 107.18 66.9757 107.18ZM66.9757 106.334C67.6957 106.334 68.2317 106.096 68.5837 105.62C68.9357 105.14 69.1117 104.518 69.1117 103.754C69.1117 102.97 68.9337 102.346 68.5777 101.882C68.2257 101.418 67.6917 101.186 66.9757 101.186C66.4917 101.186 66.0917 101.296 65.7757 101.516C65.4637 101.732 65.2297 102.034 65.0737 102.422C64.9217 102.806 64.8457 103.25 64.8457 103.754C64.8457 104.534 65.0257 105.16 65.3857 105.632C65.7457 106.1 66.2757 106.334 66.9757 106.334ZM76.4616 107.18C75.8096 107.18 75.2576 107.034 74.8056 106.742C74.3536 106.45 74.0096 106.048 73.7736 105.536C73.5416 105.02 73.4216 104.428 73.4136 103.76C73.4216 103.08 73.5456 102.484 73.7856 101.972C74.0256 101.456 74.3716 101.056 74.8236 100.772C75.2756 100.484 75.8236 100.34 76.4676 100.34C77.1236 100.34 77.6936 100.5 78.1776 100.82C78.6656 101.14 78.9996 101.578 79.1796 102.134L78.3156 102.41C78.1636 102.022 77.9216 101.722 77.5896 101.51C77.2616 101.294 76.8856 101.186 76.4616 101.186C75.9856 101.186 75.5916 101.296 75.2796 101.516C74.9676 101.732 74.7356 102.034 74.5836 102.422C74.4316 102.81 74.3536 103.256 74.3496 103.76C74.3576 104.536 74.5376 105.16 74.8896 105.632C75.2416 106.1 75.7656 106.334 76.4616 106.334C76.9016 106.334 77.2756 106.234 77.5836 106.034C77.8956 105.83 78.1316 105.534 78.2916 105.146L79.1796 105.41C78.9396 105.986 78.5876 106.426 78.1236 106.73C77.6596 107.03 77.1056 107.18 76.4616 107.18ZM85.0981 107V103.694C85.0981 103.334 85.0641 103.004 84.9961 102.704C84.9281 102.4 84.8181 102.136 84.6661 101.912C84.5181 101.684 84.3241 101.508 84.0841 101.384C83.8481 101.26 83.5601 101.198 83.2201 101.198C82.9081 101.198 82.6321 101.252 82.3921 101.36C82.1561 101.468 81.9561 101.624 81.7921 101.828C81.6321 102.028 81.5101 102.272 81.4261 102.56C81.3421 102.848 81.3001 103.176 81.3001 103.544L80.6761 103.406C80.6761 102.742 80.7921 102.184 81.0241 101.732C81.2561 101.28 81.5761 100.938 81.9841 100.706C82.3921 100.474 82.8601 100.358 83.3881 100.358C83.7761 100.358 84.1141 100.418 84.4021 100.538C84.6941 100.658 84.9401 100.82 85.1401 101.024C85.3441 101.228 85.5081 101.462 85.6321 101.726C85.7561 101.986 85.8461 102.264 85.9021 102.56C85.9581 102.852 85.9861 103.144 85.9861 103.436V107H85.0981ZM80.4121 107V98.36H81.2101V103.238H81.3001V107H80.4121ZM90.2851 107.18C89.6531 107.18 89.1051 107.04 88.6411 106.76C88.1811 106.48 87.8231 106.086 87.5671 105.578C87.3111 105.07 87.1831 104.474 87.1831 103.79C87.1831 103.082 87.3091 102.47 87.5611 101.954C87.8131 101.438 88.1671 101.04 88.6231 100.76C89.0831 100.48 89.6251 100.34 90.2491 100.34C90.8891 100.34 91.4351 100.488 91.8871 100.784C92.3391 101.076 92.6811 101.496 92.9131 102.044C93.1451 102.592 93.2511 103.246 93.2311 104.006H92.3311V103.694C92.3151 102.854 92.1331 102.22 91.7851 101.792C91.4411 101.364 90.9371 101.15 90.2731 101.15C89.5771 101.15 89.0431 101.376 88.6711 101.828C88.3031 102.28 88.1191 102.924 88.1191 103.76C88.1191 104.576 88.3031 105.21 88.6711 105.662C89.0431 106.11 89.5691 106.334 90.2491 106.334C90.7131 106.334 91.1171 106.228 91.4611 106.016C91.8091 105.8 92.0831 105.49 92.2831 105.086L93.1051 105.404C92.8491 105.968 92.4711 106.406 91.9711 106.718C91.4751 107.026 90.9131 107.18 90.2851 107.18ZM87.8071 104.006V103.268H92.7571V104.006H87.8071ZM97.2507 107.18C96.5987 107.18 96.0467 107.034 95.5947 106.742C95.1427 106.45 94.7987 106.048 94.5627 105.536C94.3307 105.02 94.2107 104.428 94.2027 103.76C94.2107 103.08 94.3347 102.484 94.5747 101.972C94.8147 101.456 95.1607 101.056 95.6127 100.772C96.0647 100.484 96.6127 100.34 97.2567 100.34C97.9127 100.34 98.4827 100.5 98.9667 100.82C99.4547 101.14 99.7887 101.578 99.9687 102.134L99.1047 102.41C98.9527 102.022 98.7107 101.722 98.3787 101.51C98.0507 101.294 97.6747 101.186 97.2507 101.186C96.7747 101.186 96.3807 101.296 96.0687 101.516C95.7567 101.732 95.5247 102.034 95.3727 102.422C95.2207 102.81 95.1427 103.256 95.1387 103.76C95.1467 104.536 95.3267 105.16 95.6787 105.632C96.0307 106.1 96.5547 106.334 97.2507 106.334C97.6907 106.334 98.0647 106.234 98.3727 106.034C98.6847 105.83 98.9207 105.534 99.0807 105.146L99.9687 105.41C99.7287 105.986 99.3767 106.426 98.9127 106.73C98.4487 107.03 97.8947 107.18 97.2507 107.18ZM101.201 107L101.207 98.36H102.095V103.64L104.987 100.52H106.163L103.127 103.76L106.559 107H105.275L102.095 103.88V107H101.201ZM112.473 107.18C111.877 107.18 111.373 107.03 110.961 106.73C110.549 106.426 110.237 106.016 110.025 105.5C109.813 104.98 109.707 104.398 109.707 103.754C109.707 103.098 109.813 102.514 110.025 102.002C110.241 101.486 110.557 101.08 110.973 100.784C111.389 100.488 111.901 100.34 112.509 100.34C113.101 100.34 113.609 100.49 114.033 100.79C114.457 101.09 114.781 101.498 115.005 102.014C115.233 102.53 115.347 103.11 115.347 103.754C115.347 104.402 115.233 104.984 115.005 105.5C114.777 106.016 114.449 106.426 114.021 106.73C113.593 107.03 113.077 107.18 112.473 107.18ZM109.557 109.88V100.52H110.349V105.398H110.445V109.88H109.557ZM112.383 106.358C112.835 106.358 113.211 106.244 113.511 106.016C113.811 105.788 114.035 105.478 114.183 105.086C114.335 104.69 114.411 104.246 114.411 103.754C114.411 103.266 114.337 102.826 114.189 102.434C114.041 102.042 113.815 101.732 113.511 101.504C113.211 101.276 112.829 101.162 112.365 101.162C111.913 101.162 111.537 101.272 111.237 101.492C110.941 101.712 110.719 102.018 110.571 102.41C110.423 102.798 110.349 103.246 110.349 103.754C110.349 104.254 110.423 104.702 110.571 105.098C110.719 105.49 110.943 105.798 111.243 106.022C111.543 106.246 111.923 106.358 112.383 106.358ZM119.406 107.18C118.774 107.18 118.226 107.04 117.762 106.76C117.302 106.48 116.944 106.086 116.688 105.578C116.432 105.07 116.304 104.474 116.304 103.79C116.304 103.082 116.43 102.47 116.682 101.954C116.934 101.438 117.288 101.04 117.744 100.76C118.204 100.48 118.746 100.34 119.37 100.34C120.01 100.34 120.556 100.488 121.008 100.784C121.46 101.076 121.802 101.496 122.034 102.044C122.266 102.592 122.372 103.246 122.352 104.006H121.452V103.694C121.436 102.854 121.254 102.22 120.906 101.792C120.562 101.364 120.058 101.15 119.394 101.15C118.698 101.15 118.164 101.376 117.792 101.828C117.424 102.28 117.24 102.924 117.24 103.76C117.24 104.576 117.424 105.21 117.792 105.662C118.164 106.11 118.69 106.334 119.37 106.334C119.834 106.334 120.238 106.228 120.582 106.016C120.93 105.8 121.204 105.49 121.404 105.086L122.226 105.404C121.97 105.968 121.592 106.406 121.092 106.718C120.596 107.026 120.034 107.18 119.406 107.18ZM116.928 104.006V103.268H121.878V104.006H116.928ZM126.39 107.18C125.746 107.18 125.196 107.034 124.74 106.742C124.284 106.45 123.934 106.046 123.69 105.53C123.446 105.014 123.324 104.422 123.324 103.754C123.324 103.074 123.448 102.478 123.696 101.966C123.944 101.454 124.296 101.056 124.752 100.772C125.212 100.484 125.758 100.34 126.39 100.34C127.038 100.34 127.59 100.486 128.046 100.778C128.506 101.066 128.856 101.468 129.096 101.984C129.34 102.496 129.462 103.086 129.462 103.754C129.462 104.434 129.34 105.032 129.096 105.548C128.852 106.06 128.5 106.46 128.04 106.748C127.58 107.036 127.03 107.18 126.39 107.18ZM126.39 106.334C127.11 106.334 127.646 106.096 127.998 105.62C128.35 105.14 128.526 104.518 128.526 103.754C128.526 102.97 128.348 102.346 127.992 101.882C127.64 101.418 127.106 101.186 126.39 101.186C125.906 101.186 125.506 101.296 125.19 101.516C124.878 101.732 124.644 102.034 124.488 102.422C124.336 102.806 124.26 103.25 124.26 103.754C124.26 104.534 124.44 105.16 124.8 105.632C125.16 106.1 125.69 106.334 126.39 106.334ZM133.695 107.18C133.099 107.18 132.595 107.03 132.183 106.73C131.771 106.426 131.459 106.016 131.247 105.5C131.035 104.98 130.929 104.398 130.929 103.754C130.929 103.098 131.035 102.514 131.247 102.002C131.463 101.486 131.779 101.08 132.195 100.784C132.611 100.488 133.123 100.34 133.731 100.34C134.323 100.34 134.831 100.49 135.255 100.79C135.679 101.09 136.003 101.498 136.227 102.014C136.455 102.53 136.569 103.11 136.569 103.754C136.569 104.402 136.455 104.984 136.227 105.5C135.999 106.016 135.671 106.426 135.243 106.73C134.815 107.03 134.299 107.18 133.695 107.18ZM130.779 109.88V100.52H131.571V105.398H131.667V109.88H130.779ZM133.605 106.358C134.057 106.358 134.433 106.244 134.733 106.016C135.033 105.788 135.257 105.478 135.405 105.086C135.557 104.69 135.633 104.246 135.633 103.754C135.633 103.266 135.559 102.826 135.411 102.434C135.263 102.042 135.037 101.732 134.733 101.504C134.433 101.276 134.051 101.162 133.587 101.162C133.135 101.162 132.759 101.272 132.459 101.492C132.163 101.712 131.941 102.018 131.793 102.41C131.645 102.798 131.571 103.246 131.571 103.754C131.571 104.254 131.645 104.702 131.793 105.098C131.941 105.49 132.165 105.798 132.465 106.022C132.765 106.246 133.145 106.358 133.605 106.358ZM138.007 107V98.18H138.889V107H138.007ZM143.43 107.18C142.798 107.18 142.25 107.04 141.786 106.76C141.326 106.48 140.968 106.086 140.712 105.578C140.456 105.07 140.328 104.474 140.328 103.79C140.328 103.082 140.454 102.47 140.706 101.954C140.958 101.438 141.312 101.04 141.768 100.76C142.228 100.48 142.77 100.34 143.394 100.34C144.034 100.34 144.58 100.488 145.032 100.784C145.484 101.076 145.826 101.496 146.058 102.044C146.29 102.592 146.396 103.246 146.376 104.006H145.476V103.694C145.46 102.854 145.278 102.22 144.93 101.792C144.586 101.364 144.082 101.15 143.418 101.15C142.722 101.15 142.188 101.376 141.816 101.828C141.448 102.28 141.264 102.924 141.264 103.76C141.264 104.576 141.448 105.21 141.816 105.662C142.188 106.11 142.714 106.334 143.394 106.334C143.858 106.334 144.262 106.228 144.606 106.016C144.954 105.8 145.228 105.49 145.428 105.086L146.25 105.404C145.994 105.968 145.616 106.406 145.116 106.718C144.62 107.026 144.058 107.18 143.43 107.18ZM140.952 104.006V103.268H145.902V104.006H140.952ZM150.23 99.29V98.3H151.112V99.29H150.23ZM150.23 107V100.52H151.112V107H150.23ZM157.59 107V103.694C157.59 103.334 157.556 103.004 157.488 102.704C157.42 102.4 157.31 102.136 157.158 101.912C157.01 101.684 156.816 101.508 156.576 101.384C156.34 101.26 156.052 101.198 155.712 101.198C155.4 101.198 155.124 101.252 154.884 101.36C154.648 101.468 154.448 101.624 154.284 101.828C154.124 102.028 154.002 102.272 153.918 102.56C153.834 102.848 153.792 103.176 153.792 103.544L153.168 103.406C153.168 102.742 153.284 102.184 153.516 101.732C153.748 101.28 154.068 100.938 154.476 100.706C154.884 100.474 155.352 100.358 155.88 100.358C156.268 100.358 156.606 100.418 156.894 100.538C157.186 100.658 157.432 100.82 157.632 101.024C157.836 101.228 158 101.462 158.124 101.726C158.248 101.986 158.338 102.264 158.394 102.56C158.45 102.852 158.478 103.144 158.478 103.436V107H157.59ZM152.904 107V100.52H153.702V102.116H153.792V107H152.904ZM165.966 107C165.602 107.076 165.242 107.106 164.886 107.09C164.534 107.074 164.218 106.998 163.938 106.862C163.662 106.726 163.452 106.514 163.308 106.226C163.192 105.986 163.128 105.744 163.116 105.5C163.108 105.252 163.104 104.97 163.104 104.654V98.72H163.98V104.618C163.98 104.89 163.982 105.118 163.986 105.302C163.994 105.482 164.036 105.642 164.112 105.782C164.256 106.05 164.484 106.21 164.796 106.262C165.112 106.314 165.502 106.302 165.966 106.226V107ZM161.718 101.276V100.52H165.966V101.276H161.718ZM169.714 107.18C169.07 107.18 168.52 107.034 168.064 106.742C167.608 106.45 167.258 106.046 167.014 105.53C166.77 105.014 166.648 104.422 166.648 103.754C166.648 103.074 166.772 102.478 167.02 101.966C167.268 101.454 167.62 101.056 168.076 100.772C168.536 100.484 169.082 100.34 169.714 100.34C170.362 100.34 170.914 100.486 171.37 100.778C171.83 101.066 172.18 101.468 172.42 101.984C172.664 102.496 172.786 103.086 172.786 103.754C172.786 104.434 172.664 105.032 172.42 105.548C172.176 106.06 171.824 106.46 171.364 106.748C170.904 107.036 170.354 107.18 169.714 107.18ZM169.714 106.334C170.434 106.334 170.97 106.096 171.322 105.62C171.674 105.14 171.85 104.518 171.85 103.754C171.85 102.97 171.672 102.346 171.316 101.882C170.964 101.418 170.43 101.186 169.714 101.186C169.23 101.186 168.83 101.296 168.514 101.516C168.202 101.732 167.968 102.034 167.812 102.422C167.66 102.806 167.584 103.25 167.584 103.754C167.584 104.534 167.764 105.16 168.124 105.632C168.484 106.1 169.014 106.334 169.714 106.334ZM179.254 107.18C178.622 107.18 178.074 107.04 177.61 106.76C177.15 106.48 176.792 106.086 176.536 105.578C176.28 105.07 176.152 104.474 176.152 103.79C176.152 103.082 176.278 102.47 176.53 101.954C176.782 101.438 177.136 101.04 177.592 100.76C178.052 100.48 178.594 100.34 179.218 100.34C179.858 100.34 180.404 100.488 180.856 100.784C181.308 101.076 181.65 101.496 181.882 102.044C182.114 102.592 182.22 103.246 182.2 104.006H181.3V103.694C181.284 102.854 181.102 102.22 180.754 101.792C180.41 101.364 179.906 101.15 179.242 101.15C178.546 101.15 178.012 101.376 177.64 101.828C177.272 102.28 177.088 102.924 177.088 103.76C177.088 104.576 177.272 105.21 177.64 105.662C178.012 106.11 178.538 106.334 179.218 106.334C179.682 106.334 180.086 106.228 180.43 106.016C180.778 105.8 181.052 105.49 181.252 105.086L182.074 105.404C181.818 105.968 181.44 106.406 180.94 106.718C180.444 107.026 179.882 107.18 179.254 107.18ZM176.776 104.006V103.268H181.726V104.006H176.776ZM185.049 107L182.697 100.52H183.591L185.505 105.848L187.407 100.52H188.313L185.961 107H185.049ZM191.898 107.18C191.266 107.18 190.718 107.04 190.254 106.76C189.794 106.48 189.436 106.086 189.18 105.578C188.924 105.07 188.796 104.474 188.796 103.79C188.796 103.082 188.922 102.47 189.174 101.954C189.426 101.438 189.78 101.04 190.236 100.76C190.696 100.48 191.238 100.34 191.862 100.34C192.502 100.34 193.048 100.488 193.5 100.784C193.952 101.076 194.294 101.496 194.526 102.044C194.758 102.592 194.864 103.246 194.844 104.006H193.944V103.694C193.928 102.854 193.746 102.22 193.398 101.792C193.054 101.364 192.55 101.15 191.886 101.15C191.19 101.15 190.656 101.376 190.284 101.828C189.916 102.28 189.732 102.924 189.732 103.76C189.732 104.576 189.916 105.21 190.284 105.662C190.656 106.11 191.182 106.334 191.862 106.334C192.326 106.334 192.73 106.228 193.074 106.016C193.422 105.8 193.696 105.49 193.896 105.086L194.718 105.404C194.462 105.968 194.084 106.406 193.584 106.718C193.088 107.026 192.526 107.18 191.898 107.18ZM189.42 104.006V103.268H194.37V104.006H189.42ZM200.68 107V103.694C200.68 103.334 200.646 103.004 200.578 102.704C200.51 102.4 200.4 102.136 200.248 101.912C200.1 101.684 199.906 101.508 199.666 101.384C199.43 101.26 199.142 101.198 198.802 101.198C198.49 101.198 198.214 101.252 197.974 101.36C197.738 101.468 197.538 101.624 197.374 101.828C197.214 102.028 197.092 102.272 197.008 102.56C196.924 102.848 196.882 103.176 196.882 103.544L196.258 103.406C196.258 102.742 196.374 102.184 196.606 101.732C196.838 101.28 197.158 100.938 197.566 100.706C197.974 100.474 198.442 100.358 198.97 100.358C199.358 100.358 199.696 100.418 199.984 100.538C200.276 100.658 200.522 100.82 200.722 101.024C200.926 101.228 201.09 101.462 201.214 101.726C201.338 101.986 201.428 102.264 201.484 102.56C201.54 102.852 201.568 103.144 201.568 103.436V107H200.68ZM195.994 107V100.52H196.792V102.116H196.882V107H195.994ZM206.653 107C206.289 107.076 205.929 107.106 205.573 107.09C205.221 107.074 204.905 106.998 204.625 106.862C204.349 106.726 204.139 106.514 203.995 106.226C203.879 105.986 203.815 105.744 203.803 105.5C203.795 105.252 203.791 104.97 203.791 104.654V98.72H204.667V104.618C204.667 104.89 204.669 105.118 204.673 105.302C204.681 105.482 204.723 105.642 204.799 105.782C204.943 106.05 205.171 106.21 205.483 106.262C205.799 106.314 206.189 106.302 206.653 106.226V107ZM202.405 101.276V100.52H206.653V101.276H202.405ZM210.348 107.174C209.588 107.174 208.962 107.01 208.47 106.682C207.982 106.354 207.682 105.898 207.57 105.314L208.47 105.164C208.566 105.532 208.784 105.826 209.124 106.046C209.468 106.262 209.892 106.37 210.396 106.37C210.888 106.37 211.276 106.268 211.56 106.064C211.844 105.856 211.986 105.574 211.986 105.218C211.986 105.018 211.94 104.856 211.848 104.732C211.76 104.604 211.578 104.486 211.302 104.378C211.026 104.27 210.614 104.142 210.066 103.994C209.478 103.834 209.018 103.674 208.686 103.514C208.354 103.354 208.118 103.17 207.978 102.962C207.838 102.75 207.768 102.492 207.768 102.188C207.768 101.82 207.872 101.498 208.08 101.222C208.288 100.942 208.576 100.726 208.944 100.574C209.312 100.418 209.74 100.34 210.228 100.34C210.716 100.34 211.152 100.42 211.536 100.58C211.924 100.736 212.236 100.956 212.472 101.24C212.708 101.524 212.848 101.854 212.892 102.23L211.992 102.392C211.932 102.012 211.742 101.712 211.422 101.492C211.106 101.268 210.704 101.152 210.216 101.144C209.756 101.132 209.382 101.22 209.094 101.408C208.806 101.592 208.662 101.838 208.662 102.146C208.662 102.318 208.714 102.466 208.818 102.59C208.922 102.71 209.11 102.824 209.382 102.932C209.658 103.04 210.05 103.158 210.558 103.286C211.154 103.438 211.622 103.598 211.962 103.766C212.302 103.934 212.544 104.132 212.688 104.36C212.832 104.588 212.904 104.87 212.904 105.206C212.904 105.818 212.676 106.3 212.22 106.652C211.768 107 211.144 107.174 210.348 107.174ZM214.403 107V105.974H215.429V107H214.403ZM29.138 127V119.206H26.12V118.36H33.038V119.206H30.02V127H29.138ZM38.6802 127V123.694C38.6802 123.334 38.6462 123.004 38.5782 122.704C38.5102 122.4 38.4002 122.136 38.2482 121.912C38.1002 121.684 37.9062 121.508 37.6662 121.384C37.4302 121.26 37.1422 121.198 36.8022 121.198C36.4902 121.198 36.2142 121.252 35.9742 121.36C35.7382 121.468 35.5382 121.624 35.3742 121.828C35.2142 122.028 35.0922 122.272 35.0082 122.56C34.9242 122.848 34.8822 123.176 34.8822 123.544L34.2582 123.406C34.2582 122.742 34.3742 122.184 34.6062 121.732C34.8382 121.28 35.1582 120.938 35.5662 120.706C35.9742 120.474 36.4422 120.358 36.9702 120.358C37.3582 120.358 37.6962 120.418 37.9842 120.538C38.2762 120.658 38.5222 120.82 38.7222 121.024C38.9262 121.228 39.0902 121.462 39.2142 121.726C39.3382 121.986 39.4282 122.264 39.4842 122.56C39.5402 122.852 39.5682 123.144 39.5682 123.436V127H38.6802ZM33.9942 127V118.36H34.7922V123.238H34.8822V127H33.9942ZM43.8672 127.18C43.2352 127.18 42.6872 127.04 42.2232 126.76C41.7632 126.48 41.4052 126.086 41.1492 125.578C40.8932 125.07 40.7652 124.474 40.7652 123.79C40.7652 123.082 40.8912 122.47 41.1432 121.954C41.3952 121.438 41.7492 121.04 42.2052 120.76C42.6652 120.48 43.2072 120.34 43.8312 120.34C44.4712 120.34 45.0172 120.488 45.4692 120.784C45.9212 121.076 46.2632 121.496 46.4952 122.044C46.7272 122.592 46.8332 123.246 46.8132 124.006H45.9132V123.694C45.8972 122.854 45.7152 122.22 45.3672 121.792C45.0232 121.364 44.5192 121.15 43.8552 121.15C43.1592 121.15 42.6252 121.376 42.2532 121.828C41.8852 122.28 41.7012 122.924 41.7012 123.76C41.7012 124.576 41.8852 125.21 42.2532 125.662C42.6252 126.11 43.1512 126.334 43.8312 126.334C44.2952 126.334 44.6992 126.228 45.0432 126.016C45.3912 125.8 45.6652 125.49 45.8652 125.086L46.6872 125.404C46.4312 125.968 46.0532 126.406 45.5532 126.718C45.0572 127.026 44.4952 127.18 43.8672 127.18ZM41.3892 124.006V123.268H46.3392V124.006H41.3892ZM48.1447 127V120.52H48.9367V122.08L48.7807 121.876C48.8527 121.684 48.9467 121.508 49.0627 121.348C49.1787 121.184 49.3047 121.05 49.4407 120.946C49.6087 120.798 49.8047 120.686 50.0287 120.61C50.2527 120.53 50.4787 120.484 50.7067 120.472C50.9347 120.456 51.1427 120.472 51.3307 120.52V121.348C51.0947 121.288 50.8367 121.274 50.5567 121.306C50.2767 121.338 50.0187 121.45 49.7827 121.642C49.5667 121.81 49.4047 122.012 49.2967 122.248C49.1887 122.48 49.1167 122.728 49.0807 122.992C49.0447 123.252 49.0267 123.51 49.0267 123.766V127H48.1447ZM55.0937 127.18C54.4617 127.18 53.9137 127.04 53.4497 126.76C52.9897 126.48 52.6317 126.086 52.3757 125.578C52.1197 125.07 51.9917 124.474 51.9917 123.79C51.9917 123.082 52.1177 122.47 52.3697 121.954C52.6217 121.438 52.9757 121.04 53.4317 120.76C53.8917 120.48 54.4337 120.34 55.0577 120.34C55.6977 120.34 56.2437 120.488 56.6957 120.784C57.1477 121.076 57.4897 121.496 57.7217 122.044C57.9537 122.592 58.0597 123.246 58.0397 124.006H57.1397V123.694C57.1237 122.854 56.9417 122.22 56.5937 121.792C56.2497 121.364 55.7457 121.15 55.0817 121.15C54.3857 121.15 53.8517 121.376 53.4797 121.828C53.1117 122.28 52.9277 122.924 52.9277 123.76C52.9277 124.576 53.1117 125.21 53.4797 125.662C53.8517 126.11 54.3777 126.334 55.0577 126.334C55.5217 126.334 55.9257 126.228 56.2697 126.016C56.6177 125.8 56.8917 125.49 57.0917 125.086L57.9137 125.404C57.6577 125.968 57.2797 126.406 56.7797 126.718C56.2837 127.026 55.7217 127.18 55.0937 127.18ZM52.6157 124.006V123.268H57.5657V124.006H52.6157ZM63.6276 127.18C63.1396 127.18 62.7296 127.092 62.3976 126.916C62.0696 126.74 61.8236 126.506 61.6596 126.214C61.4956 125.922 61.4136 125.604 61.4136 125.26C61.4136 124.908 61.4836 124.608 61.6236 124.36C61.7676 124.108 61.9616 123.902 62.2056 123.742C62.4536 123.582 62.7396 123.46 63.0636 123.376C63.3916 123.296 63.7536 123.226 64.1496 123.166C64.5496 123.102 64.9396 123.048 65.3196 123.004C65.7036 122.956 66.0396 122.91 66.3276 122.866L66.0156 123.058C66.0276 122.418 65.9036 121.944 65.6436 121.636C65.3836 121.328 64.9316 121.174 64.2876 121.174C63.8436 121.174 63.4676 121.274 63.1596 121.474C62.8556 121.674 62.6416 121.99 62.5176 122.422L61.6596 122.17C61.8076 121.59 62.1056 121.14 62.5536 120.82C63.0016 120.5 63.5836 120.34 64.2996 120.34C64.8916 120.34 65.3936 120.452 65.8056 120.676C66.2216 120.896 66.5156 121.216 66.6876 121.636C66.7676 121.824 66.8196 122.034 66.8436 122.266C66.8676 122.498 66.8796 122.734 66.8796 122.974V127H66.0936V125.374L66.3216 125.47C66.1016 126.026 65.7596 126.45 65.2956 126.742C64.8316 127.034 64.2756 127.18 63.6276 127.18ZM63.7296 126.418C64.1416 126.418 64.5016 126.344 64.8096 126.196C65.1176 126.048 65.3656 125.846 65.5536 125.59C65.7416 125.33 65.8636 125.038 65.9196 124.714C65.9676 124.506 65.9936 124.278 65.9976 124.03C66.0016 123.778 66.0036 123.59 66.0036 123.466L66.3396 123.64C66.0396 123.68 65.7136 123.72 65.3616 123.76C65.0136 123.8 64.6696 123.846 64.3296 123.898C63.9936 123.95 63.6896 124.012 63.4176 124.084C63.2336 124.136 63.0556 124.21 62.8836 124.306C62.7116 124.398 62.5696 124.522 62.4576 124.678C62.3496 124.834 62.2956 125.028 62.2956 125.26C62.2956 125.448 62.3416 125.63 62.4336 125.806C62.5296 125.982 62.6816 126.128 62.8896 126.244C63.1016 126.36 63.3816 126.418 63.7296 126.418ZM68.4416 127V120.52H69.2336V122.08L69.0776 121.876C69.1496 121.684 69.2436 121.508 69.3596 121.348C69.4756 121.184 69.6016 121.05 69.7376 120.946C69.9056 120.798 70.1016 120.686 70.3256 120.61C70.5496 120.53 70.7756 120.484 71.0036 120.472C71.2316 120.456 71.4396 120.472 71.6276 120.52V121.348C71.3916 121.288 71.1336 121.274 70.8536 121.306C70.5736 121.338 70.3156 121.45 70.0796 121.642C69.8636 121.81 69.7016 122.012 69.5936 122.248C69.4856 122.48 69.4136 122.728 69.3776 122.992C69.3416 123.252 69.3236 123.51 69.3236 123.766V127H68.4416ZM75.3906 127.18C74.7586 127.18 74.2106 127.04 73.7466 126.76C73.2866 126.48 72.9286 126.086 72.6726 125.578C72.4166 125.07 72.2886 124.474 72.2886 123.79C72.2886 123.082 72.4146 122.47 72.6666 121.954C72.9186 121.438 73.2726 121.04 73.7286 120.76C74.1886 120.48 74.7306 120.34 75.3546 120.34C75.9946 120.34 76.5406 120.488 76.9926 120.784C77.4446 121.076 77.7866 121.496 78.0186 122.044C78.2506 122.592 78.3566 123.246 78.3366 124.006H77.4366V123.694C77.4206 122.854 77.2386 122.22 76.8906 121.792C76.5466 121.364 76.0426 121.15 75.3786 121.15C74.6826 121.15 74.1486 121.376 73.7766 121.828C73.4086 122.28 73.2246 122.924 73.2246 123.76C73.2246 124.576 73.4086 125.21 73.7766 125.662C74.1486 126.11 74.6746 126.334 75.3546 126.334C75.8186 126.334 76.2226 126.228 76.5666 126.016C76.9146 125.8 77.1886 125.49 77.3886 125.086L78.2106 125.404C77.9546 125.968 77.5766 126.406 77.0766 126.718C76.5806 127.026 76.0186 127.18 75.3906 127.18ZM72.9126 124.006V123.268H77.8626V124.006H72.9126ZM83.9245 127.18C83.4365 127.18 83.0265 127.092 82.6945 126.916C82.3665 126.74 82.1205 126.506 81.9565 126.214C81.7925 125.922 81.7105 125.604 81.7105 125.26C81.7105 124.908 81.7805 124.608 81.9205 124.36C82.0645 124.108 82.2585 123.902 82.5025 123.742C82.7505 123.582 83.0365 123.46 83.3605 123.376C83.6885 123.296 84.0505 123.226 84.4465 123.166C84.8465 123.102 85.2365 123.048 85.6165 123.004C86.0005 122.956 86.3365 122.91 86.6245 122.866L86.3125 123.058C86.3245 122.418 86.2005 121.944 85.9405 121.636C85.6805 121.328 85.2285 121.174 84.5845 121.174C84.1405 121.174 83.7645 121.274 83.4565 121.474C83.1525 121.674 82.9385 121.99 82.8145 122.422L81.9565 122.17C82.1045 121.59 82.4025 121.14 82.8505 120.82C83.2985 120.5 83.8805 120.34 84.5965 120.34C85.1885 120.34 85.6905 120.452 86.1025 120.676C86.5185 120.896 86.8125 121.216 86.9845 121.636C87.0645 121.824 87.1165 122.034 87.1405 122.266C87.1645 122.498 87.1765 122.734 87.1765 122.974V127H86.3905V125.374L86.6185 125.47C86.3985 126.026 86.0565 126.45 85.5925 126.742C85.1285 127.034 84.5725 127.18 83.9245 127.18ZM84.0265 126.418C84.4385 126.418 84.7985 126.344 85.1065 126.196C85.4145 126.048 85.6625 125.846 85.8505 125.59C86.0385 125.33 86.1605 125.038 86.2165 124.714C86.2645 124.506 86.2905 124.278 86.2945 124.03C86.2985 123.778 86.3005 123.59 86.3005 123.466L86.6365 123.64C86.3365 123.68 86.0105 123.72 85.6585 123.76C85.3105 123.8 84.9665 123.846 84.6265 123.898C84.2905 123.95 83.9865 124.012 83.7145 124.084C83.5305 124.136 83.3525 124.21 83.1805 124.306C83.0085 124.398 82.8665 124.522 82.7545 124.678C82.6465 124.834 82.5925 125.028 82.5925 125.26C82.5925 125.448 82.6385 125.63 82.7305 125.806C82.8265 125.982 82.9785 126.128 83.1865 126.244C83.3985 126.36 83.6785 126.418 84.0265 126.418ZM91.7828 127V120.04C91.7828 119.872 91.7908 119.706 91.8068 119.542C91.8268 119.378 91.8648 119.222 91.9208 119.074C91.9768 118.922 92.0648 118.782 92.1848 118.654C92.3168 118.51 92.4608 118.406 92.6168 118.342C92.7728 118.274 92.9348 118.23 93.1028 118.21C93.2748 118.19 93.4428 118.18 93.6068 118.18H94.4348V118.924H93.6668C93.3308 118.924 93.0788 119.006 92.9108 119.17C92.7468 119.334 92.6648 119.592 92.6648 119.944V127H91.7828ZM90.6608 121.276V120.52H94.4348V121.276H90.6608ZM97.9023 127.18C97.2703 127.18 96.7223 127.04 96.2583 126.76C95.7983 126.48 95.4403 126.086 95.1843 125.578C94.9283 125.07 94.8003 124.474 94.8003 123.79C94.8003 123.082 94.9263 122.47 95.1783 121.954C95.4303 121.438 95.7843 121.04 96.2403 120.76C96.7003 120.48 97.2423 120.34 97.8663 120.34C98.5063 120.34 99.0523 120.488 99.5043 120.784C99.9563 121.076 100.298 121.496 100.53 122.044C100.762 122.592 100.868 123.246 100.848 124.006H99.9483V123.694C99.9323 122.854 99.7503 122.22 99.4023 121.792C99.0583 121.364 98.5543 121.15 97.8903 121.15C97.1943 121.15 96.6603 121.376 96.2883 121.828C95.9203 122.28 95.7363 122.924 95.7363 123.76C95.7363 124.576 95.9203 125.21 96.2883 125.662C96.6603 126.11 97.1863 126.334 97.8663 126.334C98.3303 126.334 98.7343 126.228 99.0783 126.016C99.4263 125.8 99.7003 125.49 99.9003 125.086L100.722 125.404C100.466 125.968 100.088 126.406 99.5883 126.718C99.0923 127.026 98.5303 127.18 97.9023 127.18ZM95.4243 124.006V123.268H100.374V124.006H95.4243ZM103.325 127L101.345 120.514L102.227 120.52L103.763 125.554L105.305 120.52H106.109L107.651 125.554L109.199 120.52H110.075L108.095 127H107.327L105.707 121.84L104.093 127H103.325ZM110.363 127V125.974H111.389V127H110.363ZM113.41 127V125.974H114.436V127H113.41ZM116.457 127V125.974H117.483V127H116.457ZM119.504 127V125.974H120.53V127H119.504Z" fill="black"/>
<path d="M68.9475 36.203C68.2428 36.203 67.6455 36.0117 67.1555 35.629C66.6655 35.2463 66.3295 34.733 66.1475 34.089L67.3865 33.795C67.4611 34.1357 67.6408 34.425 67.9255 34.663C68.2148 34.901 68.5461 35.02 68.9195 35.02C69.1621 35.02 69.4095 34.9617 69.6615 34.845C69.9135 34.7237 70.1071 34.5277 70.2425 34.257C70.3358 34.0703 70.3895 33.865 70.4035 33.641C70.4175 33.4123 70.4245 33.144 70.4245 32.836V25.92H71.6845V32.836C71.6845 33.1253 71.6821 33.3843 71.6775 33.613C71.6775 33.8417 71.6541 34.061 71.6075 34.271C71.5655 34.4763 71.4815 34.6863 71.3555 34.901C71.1035 35.3443 70.7651 35.6733 70.3405 35.888C69.9205 36.098 69.4561 36.203 68.9475 36.203ZM75.9347 36.21C75.37 36.21 74.8963 36.1073 74.5137 35.902C74.1357 35.692 73.8487 35.4167 73.6527 35.076C73.4613 34.7353 73.3657 34.362 73.3657 33.956C73.3657 33.5593 73.4403 33.2163 73.5897 32.927C73.7437 32.633 73.9583 32.3903 74.2337 32.199C74.509 32.003 74.838 31.849 75.2207 31.737C75.58 31.639 75.9813 31.555 76.4247 31.485C76.8727 31.4103 77.3253 31.3427 77.7827 31.282C78.24 31.2213 78.667 31.163 79.0637 31.107L78.6157 31.366C78.6297 30.694 78.4943 30.197 78.2097 29.875C77.9297 29.553 77.4443 29.392 76.7537 29.392C76.2963 29.392 75.895 29.497 75.5497 29.707C75.209 29.9123 74.9687 30.2483 74.8287 30.715L73.6457 30.358C73.8277 29.6953 74.18 29.175 74.7027 28.797C75.2253 28.419 75.9137 28.23 76.7677 28.23C77.4537 28.23 78.0417 28.3537 78.5317 28.601C79.0263 28.8437 79.381 29.2123 79.5957 29.707C79.703 29.9403 79.7707 30.1947 79.7987 30.47C79.8267 30.7407 79.8407 31.0253 79.8407 31.324V36H78.7347V34.187L78.9937 34.355C78.709 34.9663 78.31 35.4283 77.7967 35.741C77.288 36.0537 76.6673 36.21 75.9347 36.21ZM76.1237 35.167C76.5717 35.167 76.959 35.0877 77.2857 34.929C77.617 34.7657 77.883 34.5533 78.0837 34.292C78.2843 34.026 78.415 33.7367 78.4757 33.424C78.5457 33.1907 78.583 32.9317 78.5877 32.647C78.597 32.3577 78.6017 32.136 78.6017 31.982L79.0357 32.171C78.6297 32.227 78.2307 32.2807 77.8387 32.332C77.4467 32.3833 77.0757 32.4393 76.7257 32.5C76.3757 32.556 76.0607 32.6237 75.7807 32.703C75.5753 32.7683 75.3817 32.8523 75.1997 32.955C75.0223 33.0577 74.8777 33.1907 74.7657 33.354C74.6583 33.5127 74.6047 33.711 74.6047 33.949C74.6047 34.1543 74.656 34.3503 74.7587 34.537C74.866 34.7237 75.0293 34.8753 75.2487 34.992C75.4727 35.1087 75.7643 35.167 76.1237 35.167ZM90.6977 36L90.7047 31.163C90.7047 30.5983 90.553 30.1573 90.2497 29.84C89.951 29.518 89.5613 29.357 89.0807 29.357C88.8007 29.357 88.5347 29.4223 88.2827 29.553C88.0307 29.679 87.8253 29.8797 87.6667 30.155C87.508 30.4257 87.4287 30.7733 87.4287 31.198L86.7707 30.932C86.7613 30.3953 86.871 29.9263 87.0997 29.525C87.333 29.119 87.6503 28.804 88.0517 28.58C88.453 28.356 88.9057 28.244 89.4097 28.244C90.1983 28.244 90.819 28.4843 91.2717 28.965C91.7243 29.441 91.9507 30.0827 91.9507 30.89L91.9437 36H90.6977ZM81.6537 36V28.44H82.7667V30.463H82.9067V36H81.6537ZM86.1827 36L86.1897 31.212C86.1897 30.6333 86.0403 30.1807 85.7417 29.854C85.443 29.5227 85.0463 29.357 84.5517 29.357C84.0617 29.357 83.665 29.525 83.3617 29.861C83.0583 30.197 82.9067 30.6427 82.9067 31.198L82.2487 30.806C82.2487 30.316 82.3653 29.8773 82.5987 29.49C82.832 29.1027 83.1493 28.7993 83.5507 28.58C83.952 28.356 84.407 28.244 84.9157 28.244C85.4243 28.244 85.8677 28.3513 86.2457 28.566C86.6237 28.7807 86.9153 29.0887 87.1207 29.49C87.326 29.8867 87.4287 30.3603 87.4287 30.911L87.4217 36H86.1827ZM96.9816 36.21C96.2396 36.21 95.5909 36.0467 95.0356 35.72C94.4849 35.3887 94.0556 34.929 93.7476 34.341C93.4396 33.7483 93.2856 33.0577 93.2856 32.269C93.2856 31.443 93.4373 30.729 93.7406 30.127C94.0439 29.5203 94.4663 29.0537 95.0076 28.727C95.5536 28.3957 96.1929 28.23 96.9256 28.23C97.6863 28.23 98.3326 28.405 98.8646 28.755C99.4013 29.105 99.8026 29.6043 100.069 30.253C100.339 30.9017 100.456 31.674 100.419 32.57H99.1586V32.122C99.1446 31.1933 98.9556 30.5003 98.5916 30.043C98.2276 29.581 97.6863 29.35 96.9676 29.35C96.1976 29.35 95.6119 29.5973 95.2106 30.092C94.8093 30.5867 94.6086 31.296 94.6086 32.22C94.6086 33.1113 94.8093 33.802 95.2106 34.292C95.6119 34.782 96.1836 35.027 96.9256 35.027C97.4249 35.027 97.8589 34.9127 98.2276 34.684C98.5963 34.4553 98.8856 34.1263 99.0956 33.697L100.293 34.11C99.9986 34.7773 99.5553 35.2953 98.9626 35.664C98.3746 36.028 97.7143 36.21 96.9816 36.21ZM94.1886 32.57V31.569H99.7746V32.57H94.1886ZM104.833 36.203C103.932 36.203 103.193 36.007 102.614 35.615C102.04 35.2183 101.688 34.6653 101.557 33.956L102.831 33.753C102.934 34.1637 103.169 34.4903 103.538 34.733C103.907 34.971 104.364 35.09 104.91 35.09C105.428 35.09 105.834 34.9827 106.128 34.768C106.422 34.5533 106.569 34.2617 106.569 33.893C106.569 33.6783 106.52 33.5057 106.422 33.375C106.324 33.2397 106.121 33.1137 105.813 32.997C105.51 32.8803 105.05 32.7403 104.434 32.577C103.767 32.3997 103.242 32.2153 102.859 32.024C102.476 31.8327 102.203 31.611 102.04 31.359C101.877 31.107 101.795 30.8013 101.795 30.442C101.795 29.9987 101.916 29.6113 102.159 29.28C102.402 28.944 102.74 28.685 103.174 28.503C103.613 28.321 104.121 28.23 104.7 28.23C105.274 28.23 105.787 28.321 106.24 28.503C106.693 28.685 107.057 28.944 107.332 29.28C107.612 29.6113 107.778 29.9987 107.829 30.442L106.555 30.673C106.494 30.267 106.298 29.9473 105.967 29.714C105.64 29.4807 105.218 29.357 104.7 29.343C104.21 29.3243 103.811 29.4107 103.503 29.602C103.2 29.7933 103.048 30.0523 103.048 30.379C103.048 30.561 103.104 30.7173 103.216 30.848C103.333 30.9787 103.545 31.1023 103.853 31.219C104.166 31.3357 104.618 31.4687 105.211 31.618C105.878 31.786 106.403 31.9703 106.786 32.171C107.173 32.367 107.449 32.6003 107.612 32.871C107.775 33.137 107.857 33.466 107.857 33.858C107.857 34.586 107.589 35.16 107.052 35.58C106.515 35.9953 105.776 36.203 104.833 36.203ZM111.504 36L114.878 25.92H116.614L119.988 36H118.693L115.536 26.648H115.928L112.799 36H111.504ZM113.128 33.641V32.472H118.364V33.641H113.128ZM124.111 36.196C123.625 36.196 123.208 36.119 122.858 35.965C122.512 35.811 122.225 35.6057 121.997 35.349C121.768 35.0923 121.588 34.8077 121.458 34.495C121.327 34.1823 121.234 33.8627 121.178 33.536C121.126 33.2093 121.101 32.9037 121.101 32.619V28.44H122.361V32.227C122.361 32.5817 122.393 32.9247 122.459 33.256C122.524 33.5873 122.634 33.886 122.788 34.152C122.946 34.418 123.156 34.628 123.418 34.782C123.684 34.936 124.015 35.013 124.412 35.013C124.724 35.013 125.009 34.9593 125.266 34.852C125.522 34.7447 125.742 34.586 125.924 34.376C126.106 34.1613 126.246 33.8907 126.344 33.564C126.442 33.2373 126.491 32.857 126.491 32.423L127.31 32.675C127.31 33.403 127.177 34.0307 126.911 34.558C126.649 35.0853 126.278 35.4913 125.798 35.776C125.322 36.056 124.759 36.196 124.111 36.196ZM126.631 36V33.977H126.491V28.44H127.744V36H126.631ZM132.56 36.203C131.659 36.203 130.919 36.007 130.341 35.615C129.767 35.2183 129.414 34.6653 129.284 33.956L130.558 33.753C130.66 34.1637 130.896 34.4903 131.265 34.733C131.633 34.971 132.091 35.09 132.637 35.09C133.155 35.09 133.561 34.9827 133.855 34.768C134.149 34.5533 134.296 34.2617 134.296 33.893C134.296 33.6783 134.247 33.5057 134.149 33.375C134.051 33.2397 133.848 33.1137 133.54 32.997C133.236 32.8803 132.777 32.7403 132.161 32.577C131.493 32.3997 130.968 32.2153 130.586 32.024C130.203 31.8327 129.93 31.611 129.767 31.359C129.603 31.107 129.522 30.8013 129.522 30.442C129.522 29.9987 129.643 29.6113 129.886 29.28C130.128 28.944 130.467 28.685 130.901 28.503C131.339 28.321 131.848 28.23 132.427 28.23C133.001 28.23 133.514 28.321 133.967 28.503C134.419 28.685 134.783 28.944 135.059 29.28C135.339 29.6113 135.504 29.9987 135.556 30.442L134.282 30.673C134.221 30.267 134.025 29.9473 133.694 29.714C133.367 29.4807 132.945 29.357 132.427 29.343C131.937 29.3243 131.538 29.4107 131.23 29.602C130.926 29.7933 130.775 30.0523 130.775 30.379C130.775 30.561 130.831 30.7173 130.943 30.848C131.059 30.9787 131.272 31.1023 131.58 31.219C131.892 31.3357 132.345 31.4687 132.938 31.618C133.605 31.786 134.13 31.9703 134.513 32.171C134.9 32.367 135.175 32.6003 135.339 32.871C135.502 33.137 135.584 33.466 135.584 33.858C135.584 34.586 135.315 35.16 134.779 35.58C134.242 35.9953 133.502 36.203 132.56 36.203ZM141.348 36C140.9 36.0887 140.457 36.1237 140.018 36.105C139.584 36.091 139.197 36.0047 138.856 35.846C138.516 35.6827 138.257 35.4307 138.079 35.09C137.93 34.7913 137.848 34.4903 137.834 34.187C137.825 33.879 137.82 33.5313 137.82 33.144V26.34H139.066V33.088C139.066 33.396 139.069 33.6597 139.073 33.879C139.083 34.0983 139.132 34.2873 139.22 34.446C139.388 34.7447 139.654 34.9197 140.018 34.971C140.387 35.0223 140.83 35.0083 141.348 34.929V36ZM136.287 29.469V28.44H141.348V29.469H136.287ZM143.023 27.103V25.815H144.269V27.103H143.023ZM143.023 36V28.44H144.269V36H143.023ZM151.753 36V32.213C151.753 31.8537 151.72 31.5083 151.655 31.177C151.594 30.8457 151.484 30.5493 151.326 30.288C151.172 30.022 150.962 29.812 150.696 29.658C150.434 29.504 150.103 29.427 149.702 29.427C149.389 29.427 149.104 29.4807 148.848 29.588C148.596 29.6907 148.379 29.8493 148.197 30.064C148.015 30.2787 147.872 30.5493 147.77 30.876C147.672 31.198 147.623 31.5783 147.623 32.017L146.804 31.765C146.804 31.0323 146.934 30.4047 147.196 29.882C147.462 29.3547 147.833 28.951 148.309 28.671C148.789 28.3863 149.354 28.244 150.003 28.244C150.493 28.244 150.91 28.321 151.256 28.475C151.601 28.629 151.888 28.8343 152.117 29.091C152.345 29.343 152.525 29.6277 152.656 29.945C152.786 30.2577 152.877 30.5773 152.929 30.904C152.985 31.226 153.013 31.5317 153.013 31.821V36H151.753ZM146.363 36V28.44H147.483V30.463H147.623V36H146.363Z" fill="black"/>
<path d="M70 51.6613L67.9772 52.9403C67.9019 52.9864 67.8264 53.0058 67.7507 52.9985C67.6751 52.9911 67.6066 52.9644 67.5452 52.9183C67.4839 52.8722 67.4366 52.8119 67.4033 52.7374C67.3699 52.663 67.3646 52.5807 67.3873 52.4906L67.9242 50.0825L66.1384 48.4617C66.0717 48.4009 66.0292 48.3305 66.0109 48.2505C65.9926 48.1704 65.9974 48.0927 66.0254 48.0172C66.0534 47.9417 66.0937 47.88 66.1464 47.8322C66.199 47.7843 66.271 47.753 66.3623 47.7383L68.7191 47.5224L69.634 45.2485C69.6674 45.1639 69.7179 45.1013 69.7855 45.0608C69.8532 45.0203 69.9247 45 70 45C70.0753 45 70.1468 45.0203 70.2145 45.0608C70.2821 45.1013 70.3326 45.1639 70.366 45.2485L71.2809 47.5224L73.6377 47.7383C73.729 47.753 73.801 47.7843 73.8536 47.8322C73.9063 47.88 73.9466 47.9417 73.9746 48.0172C74.0026 48.0927 74.0074 48.1704 73.9891 48.2505C73.9708 48.3305 73.9283 48.4009 73.8616 48.4617L72.0758 50.0825L72.6127 52.4906C72.6354 52.5807 72.6301 52.663 72.5967 52.7374C72.5634 52.8119 72.5161 52.8722 72.4548 52.9183C72.3934 52.9644 72.3249 52.9911 72.2493 52.9985C72.1736 53.0058 72.0981 52.9864 72.0228 52.9403L70 51.6613Z" fill="#0354F5"/>
<path d="M82 51.6613L79.9772 52.9403C79.9019 52.9864 79.8264 53.0058 79.7507 52.9985C79.6751 52.9911 79.6066 52.9644 79.5452 52.9183C79.4839 52.8722 79.4366 52.8119 79.4033 52.7374C79.3699 52.663 79.3646 52.5807 79.3873 52.4906L79.9242 50.0825L78.1384 48.4617C78.0717 48.4009 78.0292 48.3305 78.0109 48.2505C77.9926 48.1704 77.9974 48.0927 78.0254 48.0172C78.0534 47.9417 78.0937 47.88 78.1464 47.8322C78.199 47.7843 78.271 47.753 78.3623 47.7383L80.7191 47.5224L81.634 45.2485C81.6674 45.1639 81.7179 45.1013 81.7855 45.0608C81.8532 45.0203 81.9247 45 82 45C82.0753 45 82.1468 45.0203 82.2145 45.0608C82.2821 45.1013 82.3326 45.1639 82.366 45.2485L83.2809 47.5224L85.6377 47.7383C85.729 47.753 85.801 47.7843 85.8536 47.8322C85.9063 47.88 85.9466 47.9417 85.9746 48.0172C86.0026 48.0927 86.0074 48.1704 85.9891 48.2505C85.9708 48.3305 85.9283 48.4009 85.8616 48.4617L84.0758 50.0825L84.6127 52.4906C84.6354 52.5807 84.6301 52.663 84.5967 52.7374C84.5634 52.8119 84.5161 52.8722 84.4548 52.9183C84.3934 52.9644 84.3249 52.9911 84.2493 52.9985C84.1736 53.0058 84.0981 52.9864 84.0228 52.9403L82 51.6613Z" fill="#0354F5"/>
<path d="M94 51.6613L91.9772 52.9403C91.9019 52.9864 91.8264 53.0058 91.7507 52.9985C91.6751 52.9911 91.6066 52.9644 91.5452 52.9183C91.4839 52.8722 91.4366 52.8119 91.4033 52.7374C91.3699 52.663 91.3646 52.5807 91.3873 52.4906L91.9242 50.0825L90.1384 48.4617C90.0717 48.4009 90.0292 48.3305 90.0109 48.2505C89.9926 48.1704 89.9974 48.0927 90.0254 48.0172C90.0534 47.9417 90.0937 47.88 90.1464 47.8322C90.199 47.7843 90.271 47.753 90.3623 47.7383L92.7191 47.5224L93.634 45.2485C93.6674 45.1639 93.7179 45.1013 93.7855 45.0608C93.8532 45.0203 93.9247 45 94 45C94.0753 45 94.1468 45.0203 94.2145 45.0608C94.2821 45.1013 94.3326 45.1639 94.366 45.2485L95.2809 47.5224L97.6377 47.7383C97.729 47.753 97.801 47.7843 97.8536 47.8322C97.9063 47.88 97.9466 47.9417 97.9746 48.0172C98.0026 48.0927 98.0074 48.1704 97.9891 48.2505C97.9708 48.3305 97.9283 48.4009 97.8616 48.4617L96.0758 50.0825L96.6127 52.4906C96.6354 52.5807 96.6301 52.663 96.5967 52.7374C96.5634 52.8119 96.5161 52.8722 96.4548 52.9183C96.3934 52.9644 96.3249 52.9911 96.2493 52.9985C96.1736 53.0058 96.0981 52.9864 96.0228 52.9403L94 51.6613Z" fill="#0354F5"/>
<path d="M106 51.6613L103.977 52.9403C103.902 52.9864 103.826 53.0058 103.751 52.9985C103.675 52.9911 103.607 52.9644 103.545 52.9183C103.484 52.8722 103.437 52.8119 103.403 52.7374C103.37 52.663 103.365 52.5807 103.387 52.4906L103.924 50.0825L102.138 48.4617C102.072 48.4009 102.029 48.3305 102.011 48.2505C101.993 48.1704 101.997 48.0927 102.025 48.0172C102.053 47.9417 102.094 47.88 102.146 47.8322C102.199 47.7843 102.271 47.753 102.362 47.7383L104.719 47.5224L105.634 45.2485C105.667 45.1639 105.718 45.1013 105.786 45.0608C105.853 45.0203 105.925 45 106 45C106.075 45 106.147 45.0203 106.214 45.0608C106.282 45.1013 106.333 45.1639 106.366 45.2485L107.281 47.5224L109.638 47.7383C109.729 47.753 109.801 47.7843 109.854 47.8322C109.906 47.88 109.947 47.9417 109.975 48.0172C110.003 48.0927 110.007 48.1704 109.989 48.2505C109.971 48.3305 109.928 48.4009 109.862 48.4617L108.076 50.0825L108.613 52.4906C108.635 52.5807 108.63 52.663 108.597 52.7374C108.563 52.8119 108.516 52.8722 108.455 52.9183C108.393 52.9644 108.325 52.9911 108.249 52.9985C108.174 53.0058 108.098 52.9864 108.023 52.9403L106 51.6613Z" fill="#0354F5"/>
<path d="M118 51.6613L115.977 52.9403C115.902 52.9864 115.826 53.0058 115.751 52.9985C115.675 52.9911 115.607 52.9644 115.545 52.9183C115.484 52.8722 115.437 52.8119 115.403 52.7374C115.37 52.663 115.365 52.5807 115.387 52.4906L115.924 50.0825L114.138 48.4617C114.072 48.4009 114.029 48.3305 114.011 48.2505C113.993 48.1704 113.997 48.0927 114.025 48.0172C114.053 47.9417 114.094 47.88 114.146 47.8322C114.199 47.7843 114.271 47.753 114.362 47.7383L116.719 47.5224L117.634 45.2485C117.667 45.1639 117.718 45.1013 117.786 45.0608C117.853 45.0203 117.925 45 118 45C118.075 45 118.147 45.0203 118.214 45.0608C118.282 45.1013 118.333 45.1639 118.366 45.2485L119.281 47.5224L121.638 47.7383C121.729 47.753 121.801 47.7843 121.854 47.8322C121.906 47.88 121.947 47.9417 121.975 48.0172C122.003 48.0927 122.007 48.1704 121.989 48.2505C121.971 48.3305 121.928 48.4009 121.862 48.4617L120.076 50.0825L120.613 52.4906C120.635 52.5807 120.63 52.663 120.597 52.7374C120.563 52.8119 120.516 52.8722 120.455 52.9183C120.393 52.9644 120.325 52.9911 120.249 52.9985C120.174 53.0058 120.098 52.9864 120.023 52.9403L118 51.6613Z" fill="#0354F5" fill-opacity="0.3"/>
</g>
<rect x="10.5" y="5.5" width="119" height="138" rx="15.5" stroke="#EFEFEF"/>
</g>
<defs>
<filter id="filter0_d_832_5891" x="0" y="0" width="140" height="159" filterUnits="userSpaceOnUse" color-interpolation-filters="sRGB">
<feFlood flood-opacity="0" result="BackgroundImageFix"/>
<feColorMatrix in="SourceAlpha" type="matrix" values="0 0 0 0 0 0 0 0 0 0 0 0 0 0 0 0 0 0 127 0" result="hardAlpha"/>
<feOffset dy="5"/>
<feGaussianBlur stdDeviation="5"/>
<feComposite in2="hardAlpha" operator="out"/>
<feColorMatrix type="matrix" values="0 0 0 0 0 0 0 0 0 0 0 0 0 0 0 0 0 0 0.02 0"/>
<feBlend mode="normal" in2="BackgroundImageFix" result="effect1_dropShadow_832_5891"/>
<feBlend mode="normal" in="SourceGraphic" in2="effect1_dropShadow_832_5891" result="shape"/>
</filter>
<clipPath id="clip0_832_5891">
<rect x="10" y="5" width="120" height="139" rx="16" fill="white"/>
</clipPath>
</defs>
</svg>
