<svg width="30" height="30" viewBox="0 0 30 30" fill="none" xmlns="http://www.w3.org/2000/svg">
<mask id="mask0_832_6034" style="mask-type:alpha" maskUnits="userSpaceOnUse" x="0" y="0" width="30" height="30">
<rect width="30" height="30" fill="#D9D9D9"/>
</mask>
<g mask="url(#mask0_832_6034)">
<path d="M11.1546 19.6749C9.69974 19.6749 8.45431 19.2552 7.41829 18.4159C6.38227 17.5767 5.86426 16.5677 5.86426 15.3892C5.86426 14.2106 6.38227 13.2017 7.41829 12.3624C8.45431 11.5231 9.69974 11.1034 11.1546 11.1034C11.6616 11.1034 12.13 11.1526 12.5598 11.2508C12.9897 11.349 13.403 11.4963 13.7997 11.6927V0.38916H21.7352V4.67487H16.4449V15.3892C16.4449 16.5677 15.9269 17.5767 14.8909 18.4159C13.8548 19.2552 12.6094 19.6749 11.1546 19.6749Z" fill="#101010"/>
</g>
</svg>
