<svg width="24" height="24" viewBox="0 0 24 24" fill="none" xmlns="http://www.w3.org/2000/svg">
<path d="M23.761 12.2738C23.762 11.4561 23.6929 10.6398 23.5544 9.83386H12.2381V14.4554H18.7195C18.5869 15.1935 18.3062 15.8971 17.8943 16.5238C17.4824 17.1505 16.9479 17.6874 16.3229 18.1019V21.1018H20.1911C22.4561 19.0136 23.761 15.9253 23.761 12.2738Z" fill="#4285F4"/>
<path d="M12.238 24C15.4762 24 18.2028 22.9367 20.1911 21.1034L16.3229 18.1035C15.2463 18.8335 13.8596 19.2502 12.238 19.2502C9.10811 19.2502 6.45153 17.1402 5.50156 14.297H1.51669V17.3886C2.51544 19.376 4.04691 21.0467 5.94012 22.2141C7.83333 23.3816 10.0138 23.9999 12.238 24Z" fill="#34A853"/>
<path d="M5.5016 14.2971C4.99938 12.8072 4.99938 11.1937 5.5016 9.70387V6.6123H1.51673C0.676549 8.28417 0.238983 10.1294 0.238983 12.0005C0.238983 13.8716 0.676549 15.7168 1.51673 17.3886L5.5016 14.2971Z" fill="#FBBC04"/>
<path d="M12.238 4.75063C13.9493 4.72268 15.6028 5.36924 16.8412 6.55058L20.2661 3.12569C18.0944 1.08588 15.2173 -0.03401 12.238 0.000787287C10.0138 0.000888659 7.83333 0.619192 5.94012 1.78667C4.04691 2.95414 2.51544 4.62484 1.51669 6.61224L5.50156 9.70381C6.45153 6.86057 9.10811 4.75063 12.238 4.75063Z" fill="#EA4335"/>
</svg>
