<svg width="343" height="200" viewBox="0 0 343 200" fill="none" xmlns="http://www.w3.org/2000/svg">
<line x1="23" y1="27.75" x2="343" y2="27.75" stroke="#989898" stroke-width="0.5"/>
<line x1="23" y1="75.75" x2="343" y2="75.75" stroke="#989898" stroke-width="0.5"/>
<line x1="23" y1="123.75" x2="343" y2="123.75" stroke="#989898" stroke-width="0.5"/>
<line x1="23" y1="171.75" x2="343" y2="171.75" stroke="#989898" stroke-width="0.5"/>
<path d="M23.5 172H67.5L107.5 156.5L141.5 86L205 152L270 64L342 123" stroke="#0052F6"/>
<path d="M204.508 187.995L204.513 187.195L207.708 184.32C207.974 184.08 208.153 183.853 208.243 183.64C208.336 183.423 208.383 183.202 208.383 182.975C208.383 182.698 208.319 182.448 208.193 182.225C208.066 182.002 207.893 181.825 207.673 181.695C207.456 181.565 207.209 181.5 206.933 181.5C206.646 181.5 206.391 181.568 206.168 181.705C205.944 181.838 205.768 182.017 205.638 182.24C205.511 182.463 205.449 182.707 205.453 182.97H204.543C204.543 182.517 204.648 182.117 204.858 181.77C205.068 181.42 205.353 181.147 205.713 180.95C206.076 180.75 206.488 180.65 206.948 180.65C207.394 180.65 207.794 180.753 208.148 180.96C208.501 181.163 208.779 181.442 208.983 181.795C209.189 182.145 209.293 182.542 209.293 182.985C209.293 183.298 209.253 183.57 209.173 183.8C209.096 184.03 208.976 184.243 208.813 184.44C208.649 184.633 208.444 184.84 208.198 185.06L205.543 187.445L205.428 187.145H209.293V187.995H204.508ZM212.464 188.14C212.107 188.14 211.776 188.075 211.469 187.945C211.162 187.812 210.897 187.625 210.674 187.385C210.454 187.142 210.292 186.853 210.189 186.52L211.044 186.275C211.154 186.608 211.337 186.862 211.594 187.035C211.851 187.208 212.139 187.293 212.459 187.29C212.752 187.283 213.006 187.217 213.219 187.09C213.436 186.96 213.602 186.783 213.719 186.56C213.839 186.337 213.899 186.078 213.899 185.785C213.899 185.338 213.766 184.977 213.499 184.7C213.232 184.42 212.882 184.28 212.449 184.28C212.329 184.28 212.202 184.297 212.069 184.33C211.939 184.363 211.817 184.41 211.704 184.47L211.274 183.765L213.944 181.35L214.059 181.65H210.474V180.8H214.719V181.655L212.444 183.835L212.434 183.52C212.911 183.487 213.327 183.565 213.684 183.755C214.041 183.945 214.317 184.217 214.514 184.57C214.714 184.923 214.814 185.328 214.814 185.785C214.814 186.245 214.711 186.652 214.504 187.005C214.297 187.358 214.017 187.637 213.664 187.84C213.311 188.04 212.911 188.14 212.464 188.14ZM217.316 190.4V189.55H217.606C217.866 189.55 218.064 189.485 218.201 189.355C218.338 189.225 218.406 189.018 218.406 188.735V182.6H219.296V189.04C219.296 189.483 219.181 189.82 218.951 190.05C218.724 190.283 218.388 190.4 217.941 190.4H217.316ZM218.406 181.645V180.725H219.296V181.645H218.406ZM222.793 188.14C222.446 188.14 222.148 188.085 221.898 187.975C221.651 187.865 221.446 187.718 221.283 187.535C221.12 187.352 220.991 187.148 220.898 186.925C220.805 186.702 220.738 186.473 220.698 186.24C220.661 186.007 220.643 185.788 220.643 185.585V182.6H221.543V185.305C221.543 185.558 221.566 185.803 221.613 186.04C221.66 186.277 221.738 186.49 221.848 186.68C221.961 186.87 222.111 187.02 222.298 187.13C222.488 187.24 222.725 187.295 223.008 187.295C223.231 187.295 223.435 187.257 223.618 187.18C223.801 187.103 223.958 186.99 224.088 186.84C224.218 186.687 224.318 186.493 224.388 186.26C224.458 186.027 224.493 185.755 224.493 185.445L225.078 185.625C225.078 186.145 224.983 186.593 224.793 186.97C224.606 187.347 224.341 187.637 223.998 187.84C223.658 188.04 223.256 188.14 222.793 188.14ZM224.593 188V186.555H224.493V182.6H225.388V188H224.593ZM230.633 188V185.295C230.633 185.038 230.61 184.792 230.563 184.555C230.52 184.318 230.441 184.107 230.328 183.92C230.218 183.73 230.068 183.58 229.878 183.47C229.691 183.36 229.455 183.305 229.168 183.305C228.945 183.305 228.741 183.343 228.558 183.42C228.378 183.493 228.223 183.607 228.093 183.76C227.963 183.913 227.861 184.107 227.788 184.34C227.718 184.57 227.683 184.842 227.683 185.155L227.098 184.975C227.098 184.452 227.191 184.003 227.378 183.63C227.568 183.253 227.833 182.965 228.173 182.765C228.516 182.562 228.92 182.46 229.383 182.46C229.733 182.46 230.031 182.515 230.278 182.625C230.525 182.735 230.73 182.882 230.893 183.065C231.056 183.245 231.185 183.448 231.278 183.675C231.371 183.898 231.436 184.127 231.473 184.36C231.513 184.59 231.533 184.808 231.533 185.015V188H230.633ZM226.783 188V182.6H227.583V184.045H227.683V188H226.783ZM235.124 188.15C234.594 188.15 234.131 188.033 233.734 187.8C233.341 187.563 233.034 187.235 232.814 186.815C232.594 186.392 232.484 185.898 232.484 185.335C232.484 184.745 232.592 184.235 232.809 183.805C233.026 183.372 233.327 183.038 233.714 182.805C234.104 182.568 234.561 182.45 235.084 182.45C235.627 182.45 236.089 182.575 236.469 182.825C236.852 183.075 237.139 183.432 237.329 183.895C237.522 184.358 237.606 184.91 237.579 185.55H236.679V185.23C236.669 184.567 236.534 184.072 236.274 183.745C236.014 183.415 235.627 183.25 235.114 183.25C234.564 183.25 234.146 183.427 233.859 183.78C233.572 184.133 233.429 184.64 233.429 185.3C233.429 185.937 233.572 186.43 233.859 186.78C234.146 187.13 234.554 187.305 235.084 187.305C235.441 187.305 235.751 187.223 236.014 187.06C236.277 186.897 236.484 186.662 236.634 186.355L237.489 186.65C237.279 187.127 236.962 187.497 236.539 187.76C236.119 188.02 235.647 188.15 235.124 188.15ZM233.129 185.55V184.835H237.119V185.55H233.129Z" fill="black"/>
<path d="M286.65 187.995L286.655 187.195L289.85 184.32C290.117 184.08 290.295 183.853 290.385 183.64C290.479 183.423 290.525 183.202 290.525 182.975C290.525 182.698 290.462 182.448 290.335 182.225C290.209 182.002 290.035 181.825 289.815 181.695C289.599 181.565 289.352 181.5 289.075 181.5C288.789 181.5 288.534 181.568 288.31 181.705C288.087 181.838 287.91 182.017 287.78 182.24C287.654 182.463 287.592 182.707 287.595 182.97H286.685C286.685 182.517 286.79 182.117 287 181.77C287.21 181.42 287.495 181.147 287.855 180.95C288.219 180.75 288.63 180.65 289.09 180.65C289.537 180.65 289.937 180.753 290.29 180.96C290.644 181.163 290.922 181.442 291.125 181.795C291.332 182.145 291.435 182.542 291.435 182.985C291.435 183.298 291.395 183.57 291.315 183.8C291.239 184.03 291.119 184.243 290.955 184.44C290.792 184.633 290.587 184.84 290.34 185.06L287.685 187.445L287.57 187.145H291.435V187.995H286.65ZM294.987 180.655C295.447 180.655 295.862 180.765 296.232 180.985C296.602 181.205 296.895 181.505 297.112 181.885C297.332 182.265 297.442 182.697 297.442 183.18V185.575C297.442 186.078 297.333 186.523 297.117 186.91C296.9 187.297 296.6 187.6 296.217 187.82C295.837 188.04 295.4 188.15 294.907 188.15C294.513 188.15 294.145 188.068 293.802 187.905C293.462 187.742 293.173 187.51 292.937 187.21L293.602 186.62C293.748 186.827 293.937 186.993 294.167 187.12C294.397 187.243 294.643 187.305 294.907 187.305C295.227 187.305 295.508 187.228 295.752 187.075C295.998 186.922 296.19 186.722 296.327 186.475C296.467 186.228 296.537 185.962 296.537 185.675V184.23L296.732 184.45C296.525 184.75 296.26 184.99 295.937 185.17C295.613 185.35 295.262 185.44 294.882 185.44C294.435 185.44 294.035 185.335 293.682 185.125C293.328 184.915 293.048 184.632 292.842 184.275C292.635 183.915 292.532 183.512 292.532 183.065C292.532 182.618 292.643 182.213 292.867 181.85C293.09 181.483 293.387 181.193 293.757 180.98C294.13 180.763 294.54 180.655 294.987 180.655ZM294.987 181.515C294.7 181.515 294.438 181.585 294.202 181.725C293.968 181.862 293.782 182.048 293.642 182.285C293.502 182.518 293.432 182.778 293.432 183.065C293.432 183.352 293.5 183.613 293.637 183.85C293.777 184.083 293.963 184.27 294.197 184.41C294.433 184.55 294.695 184.62 294.982 184.62C295.268 184.62 295.53 184.55 295.767 184.41C296.003 184.27 296.19 184.083 296.327 183.85C296.467 183.613 296.537 183.352 296.537 183.065C296.537 182.782 296.467 182.523 296.327 182.29C296.19 182.053 296.003 181.865 295.767 181.725C295.533 181.585 295.273 181.515 294.987 181.515ZM302.145 188.145C301.641 188.145 301.215 188.008 300.865 187.735C300.515 187.462 300.275 187.095 300.145 186.635L301.03 186.425C301.083 186.668 301.211 186.875 301.415 187.045C301.621 187.215 301.858 187.3 302.125 187.3C302.298 187.3 302.475 187.258 302.655 187.175C302.835 187.088 302.973 186.948 303.07 186.755C303.136 186.622 303.175 186.475 303.185 186.315C303.195 186.152 303.2 185.96 303.2 185.74V180.8H304.1V185.74C304.1 185.947 304.098 186.132 304.095 186.295C304.095 186.458 304.078 186.615 304.045 186.765C304.015 186.912 303.955 187.062 303.865 187.215C303.685 187.532 303.443 187.767 303.14 187.92C302.84 188.07 302.508 188.145 302.145 188.145ZM307.65 188.14C307.304 188.14 307.005 188.085 306.755 187.975C306.509 187.865 306.304 187.718 306.14 187.535C305.977 187.352 305.849 187.148 305.755 186.925C305.662 186.702 305.595 186.473 305.555 186.24C305.519 186.007 305.5 185.788 305.5 185.585V182.6H306.4V185.305C306.4 185.558 306.424 185.803 306.47 186.04C306.517 186.277 306.595 186.49 306.705 186.68C306.819 186.87 306.969 187.02 307.155 187.13C307.345 187.24 307.582 187.295 307.865 187.295C308.089 187.295 308.292 187.257 308.475 187.18C308.659 187.103 308.815 186.99 308.945 186.84C309.075 186.687 309.175 186.493 309.245 186.26C309.315 186.027 309.35 185.755 309.35 185.445L309.935 185.625C309.935 186.145 309.84 186.593 309.65 186.97C309.464 187.347 309.199 187.637 308.855 187.84C308.515 188.04 308.114 188.14 307.65 188.14ZM309.45 188V186.555H309.35V182.6H310.245V188H309.45ZM315.49 188V185.295C315.49 185.038 315.467 184.792 315.42 184.555C315.377 184.318 315.299 184.107 315.185 183.92C315.075 183.73 314.925 183.58 314.735 183.47C314.549 183.36 314.312 183.305 314.025 183.305C313.802 183.305 313.599 183.343 313.415 183.42C313.235 183.493 313.08 183.607 312.95 183.76C312.82 183.913 312.719 184.107 312.645 184.34C312.575 184.57 312.54 184.842 312.54 185.155L311.955 184.975C311.955 184.452 312.049 184.003 312.235 183.63C312.425 183.253 312.69 182.965 313.03 182.765C313.374 182.562 313.777 182.46 314.24 182.46C314.59 182.46 314.889 182.515 315.135 182.625C315.382 182.735 315.587 182.882 315.75 183.065C315.914 183.245 316.042 183.448 316.135 183.675C316.229 183.898 316.294 184.127 316.33 184.36C316.37 184.59 316.39 184.808 316.39 185.015V188H315.49ZM311.64 188V182.6H312.44V184.045H312.54V188H311.64ZM319.981 188.15C319.451 188.15 318.988 188.033 318.591 187.8C318.198 187.563 317.891 187.235 317.671 186.815C317.451 186.392 317.341 185.898 317.341 185.335C317.341 184.745 317.45 184.235 317.666 183.805C317.883 183.372 318.185 183.038 318.571 182.805C318.961 182.568 319.418 182.45 319.941 182.45C320.485 182.45 320.946 182.575 321.326 182.825C321.71 183.075 321.996 183.432 322.186 183.895C322.38 184.358 322.463 184.91 322.436 185.55H321.536V185.23C321.526 184.567 321.391 184.072 321.131 183.745C320.871 183.415 320.485 183.25 319.971 183.25C319.421 183.25 319.003 183.427 318.716 183.78C318.43 184.133 318.286 184.64 318.286 185.3C318.286 185.937 318.43 186.43 318.716 186.78C319.003 187.13 319.411 187.305 319.941 187.305C320.298 187.305 320.608 187.223 320.871 187.06C321.135 186.897 321.341 186.662 321.491 186.355L322.346 186.65C322.136 187.127 321.82 187.497 321.396 187.76C320.976 188.02 320.505 188.15 319.981 188.15ZM317.986 185.55V184.835H321.976V185.55H317.986Z" fill="black"/>
<rect x="23.25" y="0.25" width="319.5" height="199.5" rx="7.75" stroke="#989898" stroke-width="0.5"/>
<path d="M2.4085 124V116.542L0.7825 117.526V116.332L2.4085 115.36H3.4945V124H2.4085Z" fill="black"/>
<path d="M4.00014 172.18C3.44014 172.18 2.94014 172.054 2.50014 171.802C2.06414 171.546 1.71814 171.2 1.46214 170.764C1.21014 170.324 1.08414 169.824 1.08414 169.264V166.096C1.08414 165.536 1.21014 165.036 1.46214 164.596C1.71814 164.156 2.06414 163.81 2.50014 163.558C2.94014 163.306 3.44014 163.18 4.00014 163.18C4.56014 163.18 5.06014 163.306 5.50014 163.558C5.94014 163.81 6.28614 164.156 6.53814 164.596C6.79014 165.036 6.91614 165.536 6.91614 166.096V169.264C6.91614 169.824 6.79014 170.324 6.53814 170.764C6.28614 171.2 5.94014 171.546 5.50014 171.802C5.06014 172.054 4.56014 172.18 4.00014 172.18ZM4.00014 171.154C4.34014 171.154 4.64814 171.072 4.92414 170.908C5.20014 170.744 5.42014 170.524 5.58414 170.248C5.74814 169.968 5.83014 169.66 5.83014 169.324V166.03C5.83014 165.69 5.74814 165.382 5.58414 165.106C5.42014 164.83 5.20014 164.61 4.92414 164.446C4.64814 164.282 4.34014 164.2 4.00014 164.2C3.66414 164.2 3.35614 164.282 3.07614 164.446C2.80014 164.61 2.58014 164.83 2.41614 165.106C2.25214 165.382 2.17014 165.69 2.17014 166.03V169.324C2.17014 169.66 2.25214 169.968 2.41614 170.248C2.58014 170.524 2.80014 170.744 3.07614 170.908C3.35614 171.072 3.66414 171.154 4.00014 171.154Z" fill="black"/>
<path d="M45.009 188.14C44.6523 188.14 44.3207 188.075 44.014 187.945C43.7073 187.812 43.4423 187.625 43.219 187.385C42.999 187.142 42.8373 186.853 42.734 186.52L43.589 186.275C43.699 186.608 43.8823 186.862 44.139 187.035C44.3957 187.208 44.684 187.293 45.004 187.29C45.2973 187.283 45.5507 187.217 45.764 187.09C45.9807 186.96 46.1473 186.783 46.264 186.56C46.384 186.337 46.444 186.078 46.444 185.785C46.444 185.338 46.3107 184.977 46.044 184.7C45.7773 184.42 45.4273 184.28 44.994 184.28C44.874 184.28 44.7473 184.297 44.614 184.33C44.484 184.363 44.3623 184.41 44.249 184.47L43.819 183.765L46.489 181.35L46.604 181.65H43.019V180.8H47.264V181.655L44.989 183.835L44.979 183.52C45.4557 183.487 45.8723 183.565 46.229 183.755C46.5857 183.945 46.8623 184.217 47.059 184.57C47.259 184.923 47.359 185.328 47.359 185.785C47.359 186.245 47.2557 186.652 47.049 187.005C46.8423 187.358 46.5623 187.637 46.209 187.84C45.8557 188.04 45.4557 188.14 45.009 188.14ZM51.9609 188.145C51.4576 188.145 51.0309 188.008 50.6809 187.735C50.3309 187.462 50.0909 187.095 49.9609 186.635L50.8459 186.425C50.8993 186.668 51.0276 186.875 51.2309 187.045C51.4376 187.215 51.6743 187.3 51.9409 187.3C52.1143 187.3 52.2909 187.258 52.4709 187.175C52.6509 187.088 52.7893 186.948 52.8859 186.755C52.9526 186.622 52.9909 186.475 53.0009 186.315C53.0109 186.152 53.0159 185.96 53.0159 185.74V180.8H53.9159V185.74C53.9159 185.947 53.9143 186.132 53.9109 186.295C53.9109 186.458 53.8943 186.615 53.8609 186.765C53.8309 186.912 53.7709 187.062 53.6809 187.215C53.5009 187.532 53.2593 187.767 52.9559 187.92C52.6559 188.07 52.3243 188.145 51.9609 188.145ZM57.4668 188.14C57.1201 188.14 56.8218 188.085 56.5718 187.975C56.3251 187.865 56.1201 187.718 55.9568 187.535C55.7935 187.352 55.6651 187.148 55.5718 186.925C55.4785 186.702 55.4118 186.473 55.3718 186.24C55.3351 186.007 55.3168 185.788 55.3168 185.585V182.6H56.2168V185.305C56.2168 185.558 56.2401 185.803 56.2868 186.04C56.3335 186.277 56.4118 186.49 56.5218 186.68C56.6351 186.87 56.7851 187.02 56.9718 187.13C57.1618 187.24 57.3985 187.295 57.6818 187.295C57.9051 187.295 58.1085 187.257 58.2918 187.18C58.4751 187.103 58.6318 186.99 58.7618 186.84C58.8918 186.687 58.9918 186.493 59.0618 186.26C59.1318 186.027 59.1668 185.755 59.1668 185.445L59.7518 185.625C59.7518 186.145 59.6568 186.593 59.4668 186.97C59.2801 187.347 59.0151 187.637 58.6718 187.84C58.3318 188.04 57.9301 188.14 57.4668 188.14ZM59.2668 188V186.555H59.1668V182.6H60.0618V188H59.2668ZM65.3067 188V185.295C65.3067 185.038 65.2834 184.792 65.2367 184.555C65.1934 184.318 65.1151 184.107 65.0017 183.92C64.8917 183.73 64.7417 183.58 64.5517 183.47C64.3651 183.36 64.1284 183.305 63.8417 183.305C63.6184 183.305 63.4151 183.343 63.2317 183.42C63.0517 183.493 62.8967 183.607 62.7667 183.76C62.6367 183.913 62.5351 184.107 62.4617 184.34C62.3917 184.57 62.3567 184.842 62.3567 185.155L61.7717 184.975C61.7717 184.452 61.8651 184.003 62.0517 183.63C62.2417 183.253 62.5067 182.965 62.8467 182.765C63.1901 182.562 63.5934 182.46 64.0567 182.46C64.4067 182.46 64.7051 182.515 64.9517 182.625C65.1984 182.735 65.4034 182.882 65.5667 183.065C65.7301 183.245 65.8584 183.448 65.9517 183.675C66.0451 183.898 66.1101 184.127 66.1467 184.36C66.1867 184.59 66.2067 184.808 66.2067 185.015V188H65.3067ZM61.4567 188V182.6H62.2567V184.045H62.3567V188H61.4567ZM69.7978 188.15C69.2678 188.15 68.8045 188.033 68.4078 187.8C68.0145 187.563 67.7078 187.235 67.4878 186.815C67.2678 186.392 67.1578 185.898 67.1578 185.335C67.1578 184.745 67.2661 184.235 67.4828 183.805C67.6995 183.372 68.0011 183.038 68.3878 182.805C68.7778 182.568 69.2345 182.45 69.7578 182.45C70.3011 182.45 70.7628 182.575 71.1428 182.825C71.5261 183.075 71.8128 183.432 72.0028 183.895C72.1961 184.358 72.2795 184.91 72.2528 185.55H71.3528V185.23C71.3428 184.567 71.2078 184.072 70.9478 183.745C70.6878 183.415 70.3011 183.25 69.7878 183.25C69.2378 183.25 68.8195 183.427 68.5328 183.78C68.2461 184.133 68.1028 184.64 68.1028 185.3C68.1028 185.937 68.2461 186.43 68.5328 186.78C68.8195 187.13 69.2278 187.305 69.7578 187.305C70.1145 187.305 70.4245 187.223 70.6878 187.06C70.9511 186.897 71.1578 186.662 71.3078 186.355L72.1628 186.65C71.9528 187.127 71.6361 187.497 71.2128 187.76C70.7928 188.02 70.3211 188.15 69.7978 188.15ZM67.8028 185.55V184.835H71.7928V185.55H67.8028Z" fill="black"/>
<path d="M123.17 188V181.785L121.815 182.605V181.61L123.17 180.8H124.075V188H123.17ZM128.107 188.15C127.737 188.15 127.392 188.073 127.072 187.92C126.756 187.767 126.484 187.557 126.257 187.29C126.034 187.02 125.874 186.71 125.777 186.36L126.632 186.13C126.692 186.367 126.799 186.572 126.952 186.745C127.106 186.915 127.284 187.048 127.487 187.145C127.694 187.238 127.909 187.285 128.132 187.285C128.426 187.285 128.689 187.215 128.922 187.075C129.159 186.932 129.346 186.743 129.482 186.51C129.619 186.273 129.687 186.015 129.687 185.735C129.687 185.445 129.616 185.183 129.472 184.95C129.332 184.713 129.144 184.527 128.907 184.39C128.671 184.253 128.412 184.185 128.132 184.185C127.816 184.185 127.544 184.252 127.317 184.385C127.094 184.515 126.917 184.675 126.787 184.865L125.997 184.565L126.217 180.8H130.082V181.645H126.647L127.042 181.275L126.857 184.29L126.662 184.035C126.862 183.822 127.101 183.657 127.377 183.54C127.657 183.423 127.942 183.365 128.232 183.365C128.679 183.365 129.079 183.47 129.432 183.68C129.786 183.887 130.066 184.17 130.272 184.53C130.479 184.887 130.582 185.288 130.582 185.735C130.582 186.178 130.469 186.583 130.242 186.95C130.016 187.313 129.714 187.605 129.337 187.825C128.964 188.042 128.554 188.15 128.107 188.15ZM135.08 188.145C134.577 188.145 134.15 188.008 133.8 187.735C133.45 187.462 133.21 187.095 133.08 186.635L133.965 186.425C134.018 186.668 134.147 186.875 134.35 187.045C134.557 187.215 134.793 187.3 135.06 187.3C135.233 187.3 135.41 187.258 135.59 187.175C135.77 187.088 135.908 186.948 136.005 186.755C136.072 186.622 136.11 186.475 136.12 186.315C136.13 186.152 136.135 185.96 136.135 185.74V180.8H137.035V185.74C137.035 185.947 137.033 186.132 137.03 186.295C137.03 186.458 137.013 186.615 136.98 186.765C136.95 186.912 136.89 187.062 136.8 187.215C136.62 187.532 136.378 187.767 136.075 187.92C135.775 188.07 135.443 188.145 135.08 188.145ZM140.586 188.14C140.239 188.14 139.941 188.085 139.691 187.975C139.444 187.865 139.239 187.718 139.076 187.535C138.913 187.352 138.784 187.148 138.691 186.925C138.598 186.702 138.531 186.473 138.491 186.24C138.454 186.007 138.436 185.788 138.436 185.585V182.6H139.336V185.305C139.336 185.558 139.359 185.803 139.406 186.04C139.453 186.277 139.531 186.49 139.641 186.68C139.754 186.87 139.904 187.02 140.091 187.13C140.281 187.24 140.518 187.295 140.801 187.295C141.024 187.295 141.228 187.257 141.411 187.18C141.594 187.103 141.751 186.99 141.881 186.84C142.011 186.687 142.111 186.493 142.181 186.26C142.251 186.027 142.286 185.755 142.286 185.445L142.871 185.625C142.871 186.145 142.776 186.593 142.586 186.97C142.399 187.347 142.134 187.637 141.791 187.84C141.451 188.04 141.049 188.14 140.586 188.14ZM142.386 188V186.555H142.286V182.6H143.181V188H142.386ZM148.426 188V185.295C148.426 185.038 148.403 184.792 148.356 184.555C148.313 184.318 148.234 184.107 148.121 183.92C148.011 183.73 147.861 183.58 147.671 183.47C147.484 183.36 147.248 183.305 146.961 183.305C146.738 183.305 146.534 183.343 146.351 183.42C146.171 183.493 146.016 183.607 145.886 183.76C145.756 183.913 145.654 184.107 145.581 184.34C145.511 184.57 145.476 184.842 145.476 185.155L144.891 184.975C144.891 184.452 144.984 184.003 145.171 183.63C145.361 183.253 145.626 182.965 145.966 182.765C146.309 182.562 146.713 182.46 147.176 182.46C147.526 182.46 147.824 182.515 148.071 182.625C148.318 182.735 148.523 182.882 148.686 183.065C148.849 183.245 148.978 183.448 149.071 183.675C149.164 183.898 149.229 184.127 149.266 184.36C149.306 184.59 149.326 184.808 149.326 185.015V188H148.426ZM144.576 188V182.6H145.376V184.045H145.476V188H144.576ZM152.917 188.15C152.387 188.15 151.924 188.033 151.527 187.8C151.134 187.563 150.827 187.235 150.607 186.815C150.387 186.392 150.277 185.898 150.277 185.335C150.277 184.745 150.385 184.235 150.602 183.805C150.819 183.372 151.12 183.038 151.507 182.805C151.897 182.568 152.354 182.45 152.877 182.45C153.42 182.45 153.882 182.575 154.262 182.825C154.645 183.075 154.932 183.432 155.122 183.895C155.315 184.358 155.399 184.91 155.372 185.55H154.472V185.23C154.462 184.567 154.327 184.072 154.067 183.745C153.807 183.415 153.42 183.25 152.907 183.25C152.357 183.25 151.939 183.427 151.652 183.78C151.365 184.133 151.222 184.64 151.222 185.3C151.222 185.937 151.365 186.43 151.652 186.78C151.939 187.13 152.347 187.305 152.877 187.305C153.234 187.305 153.544 187.223 153.807 187.06C154.07 186.897 154.277 186.662 154.427 186.355L155.282 186.65C155.072 187.127 154.755 187.497 154.332 187.76C153.912 188.02 153.44 188.15 152.917 188.15ZM150.922 185.55V184.835H154.912V185.55H150.922Z" fill="black"/>
<path d="M0.63125 75.994L0.63725 75.034L4.47125 71.584C4.79125 71.296 5.00525 71.024 5.11325 70.768C5.22525 70.508 5.28125 70.242 5.28125 69.97C5.28125 69.638 5.20525 69.338 5.05325 69.07C4.90125 68.802 4.69325 68.59 4.42925 68.434C4.16925 68.278 3.87325 68.2 3.54125 68.2C3.19725 68.2 2.89125 68.282 2.62325 68.446C2.35525 68.606 2.14325 68.82 1.98725 69.088C1.83525 69.356 1.76125 69.648 1.76525 69.964H0.67325C0.67325 69.42 0.79925 68.94 1.05125 68.524C1.30325 68.104 1.64525 67.776 2.07725 67.54C2.51325 67.3 3.00725 67.18 3.55925 67.18C4.09525 67.18 4.57525 67.304 4.99925 67.552C5.42325 67.796 5.75725 68.13 6.00125 68.554C6.24925 68.974 6.37325 69.45 6.37325 69.982C6.37325 70.358 6.32525 70.684 6.22925 70.96C6.13725 71.236 5.99325 71.492 5.79725 71.728C5.60125 71.96 5.35525 72.208 5.05925 72.472L1.87325 75.334L1.73525 74.974H6.37325V75.994H0.63125Z" fill="black"/>
<path d="M3.335 33.168C2.907 33.168 2.509 33.09 2.141 32.934C1.773 32.774 1.455 32.55 1.187 32.262C0.923 31.97 0.729 31.624 0.605 31.224L1.631 30.93C1.763 31.33 1.983 31.634 2.291 31.842C2.599 32.05 2.945 32.152 3.329 32.148C3.681 32.14 3.985 32.06 4.241 31.908C4.501 31.752 4.701 31.54 4.841 31.272C4.985 31.004 5.057 30.694 5.057 30.342C5.057 29.806 4.897 29.372 4.577 29.04C4.257 28.704 3.837 28.536 3.317 28.536C3.173 28.536 3.021 28.556 2.861 28.596C2.705 28.636 2.559 28.692 2.423 28.764L1.907 27.918L5.111 25.02L5.249 25.38H0.947V24.36H6.041V25.386L3.311 28.002L3.299 27.624C3.871 27.584 4.371 27.678 4.799 27.906C5.227 28.134 5.559 28.46 5.795 28.884C6.035 29.308 6.155 29.794 6.155 30.342C6.155 30.894 6.031 31.382 5.783 31.806C5.535 32.23 5.199 32.564 4.775 32.808C4.351 33.048 3.871 33.168 3.335 33.168Z" fill="black"/>
</svg>
