<svg width="74" height="27" viewBox="0 0 74 27" fill="none" xmlns="http://www.w3.org/2000/svg">
<rect x="0.142578" y="0.464722" width="73.0117" height="26.0904" rx="7.39359" fill="#B0E298"/>
<path d="M9.73897 17.9988L10.3268 15.8362H8.31386L8.64657 14.5774H10.6595L11.0033 13.2743H8.99037L9.33418 12.0211H11.3415L11.8794 10.0248H13.1825L12.6391 12.0211H14.0032L14.5411 10.0248H15.8442L15.3008 12.0211H17.3137L16.9754 13.2743H14.9681L14.6132 14.5774H16.6261L16.2878 15.8362H14.2805L13.7038 17.9988H12.4007L12.9774 15.8362H11.6188L11.0421 17.9988H9.73897ZM11.9626 14.5774H13.3156L13.665 13.2743H12.3064L11.9626 14.5774ZM22.134 18.1762C21.3355 18.1762 20.6516 18.0025 20.0823 17.655C19.513 17.3038 19.0749 16.8158 18.7681 16.1911C18.465 15.5663 18.3134 14.8417 18.3134 14.0174C18.3134 13.193 18.465 12.4684 18.7681 11.8436C19.0749 11.2189 19.513 10.7327 20.0823 10.3853C20.6516 10.0341 21.3355 9.85846 22.134 9.85846C23.0545 9.85846 23.8216 10.0895 24.4353 10.5516C25.049 11.01 25.4796 11.6292 25.7273 12.4092L24.3798 12.7808C24.2246 12.2595 23.9602 11.8529 23.5869 11.5608C23.2135 11.2651 22.7292 11.1172 22.134 11.1172C21.598 11.1172 21.1507 11.2374 20.7921 11.4777C20.4372 11.7179 20.1692 12.0562 19.988 12.4924C19.8106 12.9249 19.72 13.4333 19.7163 14.0174C19.7163 14.6014 19.8051 15.1116 19.9825 15.5478C20.1636 15.9803 20.4335 16.3168 20.7921 16.557C21.1507 16.7973 21.598 16.9175 22.134 16.9175C22.7292 16.9175 23.2135 16.7696 23.5869 16.4739C23.9602 16.1781 24.2246 15.7715 24.3798 15.2539L25.7273 15.6255C25.4796 16.4055 25.049 17.0265 24.4353 17.4886C23.8216 17.947 23.0545 18.1762 22.134 18.1762ZM29.5899 18.1762C28.991 18.1762 28.4679 18.0413 28.0206 17.7714C27.5733 17.5016 27.2258 17.1301 26.9781 16.6569C26.7341 16.18 26.6121 15.6328 26.6121 15.0155C26.6121 14.387 26.7378 13.8362 26.9892 13.363C27.2406 12.8898 27.5899 12.5201 28.0372 12.254C28.4845 11.9878 29.0021 11.8547 29.5899 11.8547C30.1925 11.8547 30.7174 11.9897 31.1647 12.2595C31.612 12.5294 31.9595 12.9028 32.2072 13.3797C32.4549 13.8528 32.5787 14.3981 32.5787 15.0155C32.5787 15.6365 32.4531 16.1855 32.2017 16.6624C31.954 17.1356 31.6065 17.5071 31.1592 17.777C30.7119 18.0432 30.1888 18.1762 29.5899 18.1762ZM29.5899 16.923C30.1222 16.923 30.5178 16.7456 30.7766 16.3907C31.0353 16.0358 31.1647 15.5774 31.1647 15.0155C31.1647 14.4351 31.0335 13.973 30.771 13.6292C30.5085 13.2817 30.1148 13.1079 29.5899 13.1079C29.2313 13.1079 28.9356 13.1893 28.7027 13.3519C28.4735 13.5109 28.3034 13.7345 28.1925 14.0229C28.0816 14.3075 28.0261 14.6384 28.0261 15.0155C28.0261 15.5959 28.1574 16.0598 28.4199 16.4073C28.686 16.7511 29.076 16.923 29.5899 16.923ZM37.9428 18.0099V15.1264C37.9428 14.9379 37.9298 14.729 37.9039 14.4998C37.8781 14.2706 37.8171 14.0506 37.721 13.8399C37.6285 13.6255 37.4881 13.4499 37.2995 13.3131C37.1147 13.1763 36.8633 13.1079 36.5454 13.1079C36.3753 13.1079 36.2071 13.1357 36.0408 13.1911C35.8744 13.2466 35.7228 13.3427 35.5861 13.4795C35.453 13.6126 35.3458 13.7974 35.2644 14.034C35.1831 14.2669 35.1424 14.5663 35.1424 14.9323L34.3495 14.5941C34.3495 14.0839 34.4474 13.6218 34.6434 13.2078C34.843 12.7937 35.135 12.4647 35.5195 12.2207C35.904 11.973 36.3772 11.8492 36.9391 11.8492C37.3827 11.8492 37.7487 11.9231 38.037 12.071C38.3254 12.2189 38.5546 12.4074 38.7246 12.6366C38.8947 12.8658 39.0204 13.1098 39.1017 13.3686C39.183 13.6273 39.2348 13.8732 39.257 14.1061C39.2829 14.3353 39.2958 14.522 39.2958 14.6661V18.0099H37.9428ZM33.7894 18.0099V12.0211H34.9816V13.8787H35.1424V18.0099H33.7894ZM44.8851 18.0099V15.1264C44.8851 14.9379 44.8721 14.729 44.8463 14.4998C44.8204 14.2706 44.7594 14.0506 44.6633 13.8399C44.5709 13.6255 44.4304 13.4499 44.2418 13.3131C44.057 13.1763 43.8056 13.1079 43.4877 13.1079C43.3176 13.1079 43.1494 13.1357 42.9831 13.1911C42.8167 13.2466 42.6652 13.3427 42.5284 13.4795C42.3953 13.6126 42.2881 13.7974 42.2068 14.034C42.1254 14.2669 42.0848 14.5663 42.0848 14.9323L41.2918 14.5941C41.2918 14.0839 41.3898 13.6218 41.5857 13.2078C41.7853 12.7937 42.0774 12.4647 42.4618 12.2207C42.8463 11.973 43.3195 11.8492 43.8814 11.8492C44.325 11.8492 44.691 11.9231 44.9794 12.071C45.2677 12.2189 45.4969 12.4074 45.667 12.6366C45.837 12.8658 45.9627 13.1098 46.044 13.3686C46.1254 13.6273 46.1771 13.8732 46.1993 14.1061C46.2252 14.3353 46.2381 14.522 46.2381 14.6661V18.0099H44.8851ZM40.7317 18.0099V12.0211H41.924V13.8787H42.0848V18.0099H40.7317ZM50.3104 18.1762C49.7041 18.1762 49.1717 18.045 48.7133 17.7825C48.2549 17.5201 47.8963 17.1559 47.6376 16.6901C47.3825 16.2243 47.255 15.6883 47.255 15.082C47.255 14.4277 47.3806 13.8602 47.632 13.3797C47.8834 12.8954 48.2328 12.5201 48.6801 12.254C49.1274 11.9878 49.6449 11.8547 50.2327 11.8547C50.8538 11.8547 51.3806 12.0008 51.8131 12.2928C52.2493 12.5811 52.5728 12.9896 52.7835 13.5183C52.9942 14.0469 53.0737 14.6698 53.022 15.387H51.6967V14.899C51.693 14.2484 51.5784 13.7734 51.3529 13.4739C51.1273 13.1745 50.7725 13.0248 50.2882 13.0248C49.741 13.0248 49.3344 13.1948 49.0682 13.5349C48.8021 13.8713 48.669 14.3648 48.669 15.0155C48.669 15.6218 48.8021 16.0913 49.0682 16.424C49.3344 16.7567 49.7226 16.923 50.2327 16.923C50.5617 16.923 50.8445 16.8509 51.0811 16.7068C51.3214 16.5589 51.5063 16.3463 51.6357 16.0691L52.9554 16.4683C52.7262 17.0081 52.3713 17.4276 51.8907 17.7271C51.4138 18.0265 50.8871 18.1762 50.3104 18.1762ZM48.2475 15.387V14.3778H52.3676V15.387H48.2475ZM56.8599 18.1762C56.2426 18.1762 55.7158 18.0395 55.2795 17.7659C54.8433 17.4886 54.5088 17.1116 54.2759 16.6347C54.0467 16.1578 53.9302 15.6181 53.9265 15.0155C53.9302 14.4018 54.0504 13.8584 54.287 13.3852C54.5272 12.9083 54.8673 12.5349 55.3073 12.2651C55.7472 11.9915 56.2703 11.8547 56.8766 11.8547C57.5568 11.8547 58.1316 12.0266 58.6011 12.3704C59.0743 12.7105 59.383 13.1763 59.5272 13.7678L58.1963 14.1283C58.0928 13.8066 57.9209 13.5571 57.6806 13.3797C57.4403 13.1985 57.1668 13.1079 56.8599 13.1079C56.5124 13.1079 56.2259 13.1911 56.0004 13.3575C55.7749 13.5201 55.6086 13.7456 55.5013 14.034C55.3941 14.3223 55.3405 14.6495 55.3405 15.0155C55.3405 15.5848 55.4681 16.045 55.7232 16.3962C55.9782 16.7474 56.3572 16.923 56.8599 16.923C57.2148 16.923 57.4939 16.8417 57.6972 16.679C57.9043 16.5164 58.0595 16.2816 58.163 15.9748L59.5272 16.2798C59.3423 16.8898 59.0188 17.3593 58.5567 17.6883C58.0946 18.0136 57.529 18.1762 56.8599 18.1762ZM64.1485 18.0099C63.7529 18.0838 63.3647 18.1152 62.984 18.1042C62.6069 18.0968 62.2686 18.0284 61.9692 17.899C61.6698 17.7659 61.4424 17.557 61.2871 17.2724C61.1504 17.0136 61.0783 16.7493 61.0709 16.4794C61.0635 16.2095 61.0598 15.9046 61.0598 15.5645V10.3575H62.3906V15.4868C62.3906 15.7271 62.3925 15.9378 62.3962 16.119C62.4036 16.3001 62.4424 16.448 62.5126 16.5626C62.6457 16.7844 62.8583 16.9082 63.1503 16.9341C63.4424 16.96 63.7751 16.9452 64.1485 16.8898V18.0099ZM59.9729 13.0691V12.0211H64.1485V13.0691H59.9729Z" fill="white"/>
</svg>
