<svg width="47" height="28" viewBox="0 0 47 28" fill="none" xmlns="http://www.w3.org/2000/svg">
<rect y="0.916626" width="46.2099" height="26.0904" rx="7.39359" fill="#FBBC04"/>
<path d="M7.69552 18.4507L8.28331 16.2881H6.2704L6.60311 15.0293H8.61602L8.95982 13.7262H6.94692L7.29072 12.473H9.29808L9.83596 10.4767H11.1391L10.5957 12.473H11.9598L12.4977 10.4767H13.8008L13.2573 12.473H15.2702L14.932 13.7262H12.9246L12.5697 15.0293H14.5826L14.2444 16.2881H12.237L11.6603 18.4507H10.3572L10.9339 16.2881H9.57534L8.99864 18.4507H7.69552ZM9.91914 15.0293H11.2722L11.6215 13.7262H10.2629L9.91914 15.0293ZM19.6691 18.6281C19.085 18.6281 18.5583 18.5265 18.0888 18.3232C17.623 18.1198 17.2385 17.8296 16.9354 17.4526C16.6359 17.0718 16.4455 16.6208 16.3642 16.0995L17.7505 15.8888C17.8688 16.362 18.1109 16.728 18.4769 16.9868C18.8466 17.2455 19.2717 17.3749 19.7523 17.3749C20.037 17.3749 20.305 17.3306 20.5564 17.2419C20.8078 17.1531 21.0111 17.0237 21.1663 16.8537C21.3253 16.6836 21.4048 16.4748 21.4048 16.2271C21.4048 16.1162 21.3863 16.0145 21.3493 15.9221C21.3124 15.826 21.2569 15.741 21.183 15.667C21.1127 15.5931 21.0203 15.5265 20.9057 15.4674C20.7948 15.4045 20.6654 15.3509 20.5176 15.3066L18.4547 14.6966C18.2773 14.6449 18.0851 14.5765 17.878 14.4914C17.6747 14.4027 17.4806 14.2826 17.2958 14.131C17.1147 13.9757 16.9649 13.7798 16.8466 13.5432C16.732 13.3029 16.6747 13.0072 16.6747 12.656C16.6747 12.1421 16.8041 11.7114 17.0629 11.3639C17.3254 11.0128 17.6766 10.7503 18.1165 10.5765C18.5601 10.4028 19.0518 10.3178 19.5915 10.3215C20.1386 10.3251 20.6266 10.4194 21.0554 10.6043C21.4843 10.7854 21.8429 11.0497 22.1312 11.3972C22.4196 11.7447 22.6229 12.1643 22.7412 12.656L21.305 12.9055C21.2458 12.6246 21.1312 12.3861 20.9612 12.1902C20.7948 11.9906 20.5896 11.839 20.3457 11.7355C20.1054 11.632 19.8484 11.5765 19.5749 11.5691C19.3087 11.5654 19.061 11.6061 18.8318 11.6911C18.6063 11.7724 18.4233 11.8907 18.2828 12.046C18.1461 12.2013 18.0777 12.3824 18.0777 12.5894C18.0777 12.7854 18.1368 12.9462 18.2551 13.0719C18.3734 13.1939 18.5194 13.2918 18.6932 13.3658C18.8706 13.436 19.0499 13.4952 19.2311 13.5432L20.6617 13.9425C20.8577 13.9942 21.0776 14.0645 21.3216 14.1532C21.5656 14.2419 21.8003 14.3657 22.0258 14.5247C22.2514 14.6837 22.4362 14.8925 22.5804 15.1513C22.7282 15.4101 22.8022 15.7391 22.8022 16.1384C22.8022 16.5524 22.7153 16.9165 22.5416 17.2308C22.3715 17.5413 22.1404 17.8001 21.8484 18.0071C21.5564 18.2141 21.2218 18.3694 20.8447 18.4729C20.4713 18.5764 20.0795 18.6281 19.6691 18.6281ZM25.6771 18.6281C25.2446 18.6281 24.8786 18.5468 24.5791 18.3842C24.2797 18.2178 24.0524 17.9978 23.8971 17.7243C23.7455 17.4507 23.6697 17.1494 23.6697 16.8204C23.6697 16.5321 23.7178 16.2733 23.8139 16.0441C23.91 15.8112 24.0579 15.6116 24.2575 15.4452C24.4572 15.2752 24.7159 15.1365 25.0339 15.0293C25.2741 14.9517 25.5551 14.8814 25.8767 14.8186C26.202 14.7558 26.5532 14.6985 26.9303 14.6467C27.3111 14.5912 27.7085 14.5321 28.1225 14.4693L27.6456 14.741C27.6493 14.3269 27.5569 14.0219 27.3684 13.826C27.1798 13.6301 26.8619 13.5321 26.4146 13.5321C26.1447 13.5321 25.8841 13.595 25.6327 13.7207C25.3814 13.8463 25.2058 14.0626 25.1059 14.3694L23.886 13.9868C24.0339 13.4804 24.3148 13.0737 24.7289 12.7669C25.1466 12.46 25.7085 12.3066 26.4146 12.3066C26.9469 12.3066 27.4146 12.3935 27.8175 12.5673C28.2242 12.741 28.5255 13.0257 28.7214 13.4212C28.8286 13.6319 28.8933 13.8482 28.9155 14.07C28.9377 14.2881 28.9488 14.5266 28.9488 14.7853V18.4618H27.7787V17.1642L27.9728 17.3749C27.7029 17.8075 27.3869 18.1254 27.0246 18.3287C26.666 18.5283 26.2168 18.6281 25.6771 18.6281ZM25.9433 17.5635C26.2464 17.5635 26.5052 17.5099 26.7196 17.4027C26.934 17.2955 27.1041 17.1642 27.2297 17.009C27.3591 16.8537 27.446 16.7077 27.4904 16.5709C27.5606 16.4008 27.5994 16.2067 27.6068 15.9886C27.6179 15.7668 27.6235 15.5875 27.6235 15.4508L28.0338 15.5727C27.6309 15.6356 27.2852 15.691 26.9969 15.7391C26.7085 15.7872 26.4608 15.8334 26.2538 15.8777C26.0468 15.9184 25.8638 15.9646 25.7048 16.0164C25.5496 16.0718 25.4183 16.1365 25.3111 16.2104C25.2039 16.2844 25.1207 16.3694 25.0616 16.4655C25.0061 16.5616 24.9784 16.6744 24.9784 16.8038C24.9784 16.9517 25.0154 17.0829 25.0893 17.1975C25.1632 17.3084 25.2704 17.3971 25.4109 17.4637C25.5551 17.5302 25.7325 17.5635 25.9433 17.5635ZM30.9137 18.4618V12.3787C30.9137 12.2272 30.9192 12.0608 30.9303 11.8797C30.9414 11.6948 30.9728 11.5118 31.0246 11.3307C31.0763 11.1495 31.1706 10.985 31.3074 10.8372C31.4774 10.6486 31.6604 10.5192 31.8563 10.449C32.056 10.3751 32.2519 10.3344 32.4441 10.327C32.6364 10.3159 32.8046 10.3104 32.9487 10.3104H33.6973V11.3972H33.0042C32.7491 11.3972 32.5587 11.4619 32.433 11.5913C32.311 11.717 32.2501 11.8833 32.2501 12.0904V18.4618H30.9137ZM29.9488 13.521V12.473H33.6973V13.521H29.9488ZM37.0899 18.6281C36.4836 18.6281 35.9513 18.4969 35.4929 18.2344C35.0345 17.972 34.6759 17.6078 34.4171 17.142C34.162 16.6762 34.0345 16.1402 34.0345 15.5339C34.0345 14.8796 34.1602 14.3121 34.4116 13.8316C34.6629 13.3473 35.0123 12.9721 35.4596 12.7059C35.9069 12.4397 36.4245 12.3066 37.0122 12.3066C37.6333 12.3066 38.1601 12.4527 38.5926 12.7447C39.0288 13.0331 39.3523 13.4415 39.563 13.9702C39.7737 14.4988 39.8532 15.1217 39.8015 15.8389H38.4762V15.3509C38.4725 14.7003 38.3579 14.2253 38.1324 13.9258C37.9069 13.6264 37.552 13.4767 37.0677 13.4767C36.5206 13.4767 36.1139 13.6467 35.8478 13.9868C35.5816 14.3232 35.4485 14.8168 35.4485 15.4674C35.4485 16.0737 35.5816 16.5432 35.8478 16.8759C36.1139 17.2086 36.5021 17.3749 37.0122 17.3749C37.3413 17.3749 37.6241 17.3028 37.8607 17.1587C38.101 17.0108 38.2858 16.7982 38.4152 16.521L39.7349 16.9202C39.5057 17.46 39.1508 17.8795 38.6703 18.179C38.1934 18.4784 37.6666 18.6281 37.0899 18.6281ZM35.0271 15.8389V14.8297H39.1471V15.8389H35.0271Z" fill="white"/>
</svg>
