<svg width="66" height="27" viewBox="0 0 66 27" fill="none" xmlns="http://www.w3.org/2000/svg">
<rect x="0.982483" y="0.464722" width="64.6939" height="26.0904" rx="7.39359" fill="#FF007F"/>
<path d="M10.9199 17.9988L11.5077 15.8362H9.49483L9.82754 14.5774H11.8404L12.1842 13.2743H10.1713L10.5151 12.0211H12.5225L13.0604 10.0248H14.3635L13.8201 12.0211H15.1842L15.7221 10.0248H17.0252L16.4818 12.0211H18.4947L18.1564 13.2743H16.1491L15.7942 14.5774H17.8071L17.4688 15.8362H15.4615L14.8848 17.9988H13.5816L14.1583 15.8362H12.7998L12.2231 17.9988H10.9199ZM13.1436 14.5774H14.4966L14.8459 13.2743H13.4874L13.1436 14.5774ZM22.8936 18.1762C22.3095 18.1762 21.7827 18.0746 21.3132 17.8713C20.8474 17.6679 20.4629 17.3777 20.1598 17.0007C19.8603 16.6199 19.67 16.1689 19.5886 15.6476L20.9749 15.4369C21.0932 15.9101 21.3354 16.2761 21.7014 16.5349C22.071 16.7936 22.4962 16.923 22.9767 16.923C23.2614 16.923 23.5294 16.8787 23.7808 16.7899C24.0322 16.7012 24.2355 16.5718 24.3908 16.4018C24.5497 16.2317 24.6292 16.0229 24.6292 15.7752C24.6292 15.6643 24.6107 15.5626 24.5738 15.4702C24.5368 15.3741 24.4813 15.289 24.4074 15.2151C24.3372 15.1412 24.2447 15.0746 24.1301 15.0155C24.0192 14.9526 23.8899 14.899 23.742 14.8547L21.6792 14.2447C21.5017 14.1929 21.3095 14.1246 21.1025 14.0395C20.8991 13.9508 20.7051 13.8307 20.5202 13.6791C20.3391 13.5238 20.1894 13.3279 20.0711 13.0913C19.9565 12.851 19.8992 12.5553 19.8992 12.2041C19.8992 11.6902 20.0286 11.2595 20.2873 10.912C20.5498 10.5608 20.901 10.2984 21.3409 10.1246C21.7845 9.95088 22.2762 9.86585 22.8159 9.86955C23.3631 9.87325 23.851 9.96751 24.2799 10.1524C24.7087 10.3335 25.0673 10.5978 25.3556 10.9453C25.644 11.2928 25.8473 11.7124 25.9656 12.2041L24.5294 12.4536C24.4703 12.1727 24.3557 11.9342 24.1856 11.7383C24.0192 11.5387 23.8141 11.3871 23.5701 11.2836C23.3298 11.1801 23.0729 11.1246 22.7993 11.1172C22.5331 11.1135 22.2854 11.1542 22.0562 11.2392C21.8307 11.3205 21.6477 11.4388 21.5073 11.5941C21.3705 11.7494 21.3021 11.9305 21.3021 12.1375C21.3021 12.3335 21.3612 12.4943 21.4795 12.62C21.5978 12.742 21.7439 12.8399 21.9176 12.9139C22.0951 12.9841 22.2744 13.0432 22.4555 13.0913L23.8862 13.4906C24.0821 13.5423 24.302 13.6126 24.546 13.7013C24.79 13.79 25.0248 13.9138 25.2503 14.0728C25.4758 14.2318 25.6606 14.4406 25.8048 14.6994C25.9527 14.9582 26.0266 15.2872 26.0266 15.6865C26.0266 16.1005 25.9397 16.4646 25.766 16.7789C25.5959 17.0894 25.3649 17.3482 25.0728 17.5552C24.7808 17.7622 24.4462 17.9175 24.0691 18.021C23.6958 18.1245 23.3039 18.1762 22.8936 18.1762ZM29.9496 18.1762C29.3433 18.1762 28.811 18.045 28.3525 17.7825C27.8941 17.5201 27.5356 17.1559 27.2768 16.6901C27.0217 16.2243 26.8942 15.6883 26.8942 15.082C26.8942 14.4277 27.0199 13.8602 27.2712 13.3797C27.5226 12.8954 27.872 12.5201 28.3193 12.254C28.7666 11.9878 29.2841 11.8547 29.8719 11.8547C30.493 11.8547 31.0198 12.0008 31.4523 12.2928C31.8885 12.5811 32.212 12.9896 32.4227 13.5183C32.6334 14.0469 32.7129 14.6698 32.6612 15.387H31.3359V14.899C31.3322 14.2484 31.2176 13.7734 30.9921 13.4739C30.7666 13.1745 30.4117 13.0248 29.9274 13.0248C29.3803 13.0248 28.9736 13.1948 28.7074 13.5349C28.4413 13.8713 28.3082 14.3648 28.3082 15.0155C28.3082 15.6218 28.4413 16.0913 28.7074 16.424C28.9736 16.7567 29.3618 16.923 29.8719 16.923C30.2009 16.923 30.4837 16.8509 30.7203 16.7068C30.9606 16.5589 31.1455 16.3463 31.2749 16.0691L32.5946 16.4683C32.3654 17.0081 32.0105 17.4276 31.5299 17.7271C31.0531 18.0265 30.5263 18.1762 29.9496 18.1762ZM27.8868 15.387V14.3778H32.0068V15.387H27.8868ZM36.4991 18.1762C35.8818 18.1762 35.355 18.0395 34.9187 17.7659C34.4825 17.4886 34.148 17.1116 33.9151 16.6347C33.6859 16.1578 33.5694 15.6181 33.5657 15.0155C33.5694 14.4018 33.6896 13.8584 33.9262 13.3852C34.1664 12.9083 34.5066 12.5349 34.9465 12.2651C35.3864 11.9915 35.9095 11.8547 36.5158 11.8547C37.196 11.8547 37.7708 12.0266 38.2403 12.3704C38.7135 12.7105 39.0222 13.1763 39.1664 13.7678L37.8355 14.1283C37.732 13.8066 37.5601 13.5571 37.3198 13.3797C37.0795 13.1985 36.806 13.1079 36.4991 13.1079C36.1516 13.1079 35.8651 13.1911 35.6396 13.3575C35.4141 13.5201 35.2478 13.7456 35.1406 14.034C35.0333 14.3223 34.9797 14.6495 34.9797 15.0155C34.9797 15.5848 35.1073 16.045 35.3624 16.3962C35.6174 16.7474 35.9964 16.923 36.4991 16.923C36.854 16.923 37.1331 16.8417 37.3364 16.679C37.5435 16.5164 37.6987 16.2816 37.8022 15.9748L39.1664 16.2798C38.9815 16.8898 38.6581 17.3593 38.196 17.6883C37.7339 18.0136 37.1682 18.1762 36.4991 18.1762ZM42.5234 18.1818C42.0798 18.1818 41.7138 18.1079 41.4254 17.96C41.1371 17.8121 40.9079 17.6236 40.7378 17.3944C40.5678 17.1652 40.4421 16.9212 40.3607 16.6624C40.2794 16.4036 40.2258 16.1596 40.1999 15.9304C40.1778 15.6975 40.1667 15.509 40.1667 15.3648V12.0211H41.5197V14.9046C41.5197 15.0894 41.5326 15.2983 41.5585 15.5312C41.5844 15.7604 41.6435 15.9822 41.736 16.1966C41.8321 16.4073 41.9725 16.5811 42.1574 16.7179C42.3459 16.8546 42.5992 16.923 42.9171 16.923C43.0871 16.923 43.2553 16.8953 43.4217 16.8399C43.588 16.7844 43.7378 16.6901 43.8708 16.557C44.0076 16.4203 44.1167 16.2336 44.198 15.997C44.2793 15.7604 44.32 15.4609 44.32 15.0987L45.113 15.4369C45.113 15.9471 45.0132 16.4092 44.8135 16.8232C44.6176 17.2373 44.3274 17.5681 43.9429 17.8158C43.5585 18.0598 43.0853 18.1818 42.5234 18.1818ZM44.4808 18.0099V16.1522H44.32V12.0211H45.6619V18.0099H44.4808ZM47.2199 18.0099V12.0211H48.401V13.4795L48.2568 13.2909C48.3308 13.0913 48.4287 12.9102 48.5507 12.7475C48.6764 12.5811 48.8261 12.4444 48.9999 12.3372C49.1478 12.2373 49.3104 12.1597 49.4879 12.1043C49.669 12.0451 49.8538 12.01 50.0424 11.9989C50.2309 11.9841 50.4139 11.9915 50.5914 12.0211V13.2688C50.4139 13.217 50.2087 13.2004 49.9758 13.2188C49.7466 13.2373 49.5396 13.302 49.3548 13.4129C49.1699 13.5127 49.0184 13.6403 48.9001 13.7955C48.7855 13.9508 48.7005 14.1283 48.645 14.3279C48.5895 14.5238 48.5618 14.7364 48.5618 14.9656V18.0099H47.2199ZM54.2639 18.1762C53.6576 18.1762 53.1253 18.045 52.6669 17.7825C52.2085 17.5201 51.8499 17.1559 51.5911 16.6901C51.3361 16.2243 51.2085 15.6883 51.2085 15.082C51.2085 14.4277 51.3342 13.8602 51.5856 13.3797C51.837 12.8954 52.1863 12.5201 52.6336 12.254C53.0809 11.9878 53.5985 11.8547 54.1863 11.8547C54.8074 11.8547 55.3341 12.0008 55.7667 12.2928C56.2029 12.5811 56.5264 12.9896 56.7371 13.5183C56.9478 14.0469 57.0273 14.6698 56.9755 15.387H55.6502V14.899C55.6465 14.2484 55.5319 13.7734 55.3064 13.4739C55.0809 13.1745 54.726 13.0248 54.2417 13.0248C53.6946 13.0248 53.288 13.1948 53.0218 13.5349C52.7556 13.8713 52.6225 14.3648 52.6225 15.0155C52.6225 15.6218 52.7556 16.0913 53.0218 16.424C53.288 16.7567 53.6761 16.923 54.1863 16.923C54.5153 16.923 54.7981 16.8509 55.0347 16.7068C55.275 16.5589 55.4598 16.3463 55.5892 16.0691L56.909 16.4683C56.6798 17.0081 56.3249 17.4276 55.8443 17.7271C55.3674 18.0265 54.8406 18.1762 54.2639 18.1762ZM52.2011 15.387V14.3778H56.3212V15.387H52.2011Z" fill="white"/>
</svg>
