<svg width="74" height="28" viewBox="0 0 74 28" fill="none" xmlns="http://www.w3.org/2000/svg">
<rect x="0.585999" y="0.916626" width="73.0117" height="26.0904" rx="7.39359" fill="#03A4FF"/>
<path d="M11.6824 18.4507L12.2702 16.2881H10.2573L10.59 15.0293H12.6029L12.9467 13.7262H10.9338L11.2776 12.473H13.285L13.8228 10.4767H15.126L14.5825 12.473H15.9466L16.4845 10.4767H17.7876L17.2442 12.473H19.2571L18.9189 13.7262H16.9115L16.5566 15.0293H18.5695L18.2313 16.2881H16.2239L15.6472 18.4507H14.3441L14.9208 16.2881H13.5622L12.9855 18.4507H11.6824ZM13.906 15.0293H15.259L15.6084 13.7262H14.2498L13.906 15.0293ZM23.656 18.6281C23.0719 18.6281 22.5451 18.5265 22.0756 18.3232C21.6098 18.1198 21.2254 17.8296 20.9222 17.4526C20.6228 17.0718 20.4324 16.6208 20.3511 16.0995L21.7374 15.8888C21.8557 16.362 22.0978 16.728 22.4638 16.9868C22.8335 17.2455 23.2586 17.3749 23.7392 17.3749C24.0239 17.3749 24.2919 17.3306 24.5433 17.2419C24.7946 17.1531 24.998 17.0237 25.1532 16.8537C25.3122 16.6836 25.3917 16.4748 25.3917 16.2271C25.3917 16.1162 25.3732 16.0145 25.3362 15.9221C25.2992 15.826 25.2438 15.741 25.1699 15.667C25.0996 15.5931 25.0072 15.5265 24.8926 15.4674C24.7817 15.4045 24.6523 15.3509 24.5044 15.3066L22.4416 14.6966C22.2642 14.6449 22.0719 14.5765 21.8649 14.4914C21.6616 14.4027 21.4675 14.2826 21.2827 14.131C21.1015 13.9757 20.9518 13.7798 20.8335 13.5432C20.7189 13.3029 20.6616 13.0072 20.6616 12.656C20.6616 12.1421 20.791 11.7114 21.0498 11.3639C21.3123 11.0128 21.6634 10.7503 22.1034 10.5765C22.547 10.4028 23.0387 10.3178 23.5784 10.3215C24.1255 10.3251 24.6135 10.4194 25.0423 10.6043C25.4711 10.7854 25.8297 11.0497 26.1181 11.3972C26.4064 11.7447 26.6098 12.1643 26.7281 12.656L25.2919 12.9055C25.2327 12.6246 25.1181 12.3861 24.948 12.1902C24.7817 11.9906 24.5765 11.839 24.3325 11.7355C24.0922 11.632 23.8353 11.5765 23.5618 11.5691C23.2956 11.5654 23.0479 11.6061 22.8187 11.6911C22.5932 11.7724 22.4102 11.8907 22.2697 12.046C22.1329 12.2013 22.0645 12.3824 22.0645 12.5894C22.0645 12.7854 22.1237 12.9462 22.242 13.0719C22.3603 13.1939 22.5063 13.2918 22.6801 13.3658C22.8575 13.436 23.0368 13.4952 23.2179 13.5432L24.6486 13.9425C24.8445 13.9942 25.0645 14.0645 25.3085 14.1532C25.5525 14.2419 25.7872 14.3657 26.0127 14.5247C26.2382 14.6837 26.4231 14.8925 26.5672 15.1513C26.7151 15.4101 26.7891 15.7391 26.7891 16.1384C26.7891 16.5524 26.7022 16.9165 26.5284 17.2308C26.3584 17.5413 26.1273 17.8001 25.8353 18.0071C25.5432 18.2141 25.2087 18.3694 24.8316 18.4729C24.4582 18.5764 24.0664 18.6281 23.656 18.6281ZM30.2351 18.6337C29.7915 18.6337 29.4255 18.5598 29.1372 18.4119C28.8488 18.264 28.6196 18.0755 28.4496 17.8463C28.2795 17.6171 28.1538 17.3731 28.0725 17.1143C27.9912 16.8555 27.9376 16.6115 27.9117 16.3823C27.8895 16.1494 27.8784 15.9609 27.8784 15.8167V12.473H29.2314V15.3565C29.2314 15.5413 29.2444 15.7502 29.2703 15.9831C29.2961 16.2123 29.3553 16.4341 29.4477 16.6485C29.5438 16.8592 29.6843 17.033 29.8691 17.1698C30.0577 17.3065 30.3109 17.3749 30.6288 17.3749C30.7989 17.3749 30.9671 17.3472 31.1334 17.2918C31.2998 17.2363 31.4495 17.142 31.5826 17.009C31.7194 16.8722 31.8284 16.6855 31.9098 16.4489C31.9911 16.2123 32.0318 15.9129 32.0318 15.5506L32.8247 15.8888C32.8247 16.399 32.7249 16.8611 32.5253 17.2751C32.3294 17.6892 32.0392 18.02 31.6547 18.2677C31.2702 18.5117 30.797 18.6337 30.2351 18.6337ZM32.1926 18.4618V16.6042H32.0318V12.473H33.3737V18.4618H32.1926ZM37.8096 18.6281C37.2255 18.6281 36.7357 18.4895 36.3401 18.2123C35.9446 17.935 35.647 17.5579 35.4473 17.081C35.2477 16.6005 35.1479 16.0626 35.1479 15.4674C35.1479 14.8648 35.2477 14.3251 35.4473 13.8482C35.647 13.3713 35.939 12.9961 36.3235 12.7225C36.7116 12.4453 37.1904 12.3066 37.7597 12.3066C38.3253 12.3066 38.8151 12.4453 39.2292 12.7225C39.6469 12.9961 39.9704 13.3713 40.1996 13.8482C40.4288 14.3214 40.5434 14.8611 40.5434 15.4674C40.5434 16.0663 40.4306 16.6042 40.2051 17.081C39.9796 17.5579 39.6617 17.935 39.2513 18.2123C38.841 18.4895 38.3604 18.6281 37.8096 18.6281ZM34.9206 21.1235V12.473H36.1017V16.6762H36.268V21.1235H34.9206ZM37.6044 17.4304C37.9519 17.4304 38.2384 17.3435 38.4639 17.1698C38.6894 16.996 38.8558 16.7613 38.963 16.4655C39.0739 16.1661 39.1294 15.8334 39.1294 15.4674C39.1294 15.1051 39.0739 14.7761 38.963 14.4803C38.8521 14.1809 38.6802 13.9443 38.4473 13.7706C38.2144 13.5931 37.9187 13.5044 37.5601 13.5044C37.22 13.5044 36.9427 13.5876 36.7283 13.7539C36.5139 13.9166 36.3549 14.1458 36.2514 14.4415C36.1516 14.7336 36.1017 15.0755 36.1017 15.4674C36.1017 15.8556 36.1516 16.1975 36.2514 16.4932C36.3549 16.789 36.5157 17.02 36.7338 17.1864C36.9556 17.3491 37.2458 17.4304 37.6044 17.4304ZM44.6436 18.6281C44.0595 18.6281 43.5697 18.4895 43.1741 18.2123C42.7786 17.935 42.481 17.5579 42.2814 17.081C42.0817 16.6005 41.9819 16.0626 41.9819 15.4674C41.9819 14.8648 42.0817 14.3251 42.2814 13.8482C42.481 13.3713 42.773 12.9961 43.1575 12.7225C43.5457 12.4453 44.0244 12.3066 44.5937 12.3066C45.1593 12.3066 45.6491 12.4453 46.0632 12.7225C46.4809 12.9961 46.8044 13.3713 47.0336 13.8482C47.2628 14.3214 47.3774 14.8611 47.3774 15.4674C47.3774 16.0663 47.2646 16.6042 47.0391 17.081C46.8136 17.5579 46.4957 17.935 46.0854 18.2123C45.675 18.4895 45.1944 18.6281 44.6436 18.6281ZM41.7546 21.1235V12.473H42.9357V16.6762H43.102V21.1235H41.7546ZM44.4384 17.4304C44.7859 17.4304 45.0724 17.3435 45.2979 17.1698C45.5234 16.996 45.6898 16.7613 45.797 16.4655C45.9079 16.1661 45.9634 15.8334 45.9634 15.4674C45.9634 15.1051 45.9079 14.7761 45.797 14.4803C45.6861 14.1809 45.5142 13.9443 45.2813 13.7706C45.0484 13.5931 44.7527 13.5044 44.3941 13.5044C44.054 13.5044 43.7767 13.5876 43.5623 13.7539C43.3479 13.9166 43.1889 14.1458 43.0854 14.4415C42.9856 14.7336 42.9357 15.0755 42.9357 15.4674C42.9357 15.8556 42.9856 16.1975 43.0854 16.4932C43.1889 16.789 43.3497 17.02 43.5678 17.1864C43.7897 17.3491 44.0798 17.4304 44.4384 17.4304ZM51.2447 18.6281C50.6458 18.6281 50.1228 18.4932 49.6754 18.2233C49.2281 17.9535 48.8806 17.582 48.6329 17.1088C48.389 16.6319 48.267 16.0848 48.267 15.4674C48.267 14.8389 48.3927 14.2881 48.644 13.8149C48.8954 13.3417 49.2448 12.9721 49.6921 12.7059C50.1394 12.4397 50.6569 12.3066 51.2447 12.3066C51.8473 12.3066 52.3722 12.4416 52.8196 12.7114C53.2669 12.9813 53.6144 13.3547 53.8621 13.8316C54.1097 14.3047 54.2336 14.85 54.2336 15.4674C54.2336 16.0885 54.1079 16.6374 53.8565 17.1143C53.6088 17.5875 53.2613 17.959 52.814 18.2289C52.3667 18.4951 51.8436 18.6281 51.2447 18.6281ZM51.2447 17.3749C51.7771 17.3749 52.1726 17.1975 52.4314 16.8426C52.6902 16.4877 52.8196 16.0293 52.8196 15.4674C52.8196 14.887 52.6883 14.4249 52.4259 14.0811C52.1634 13.7336 51.7697 13.5598 51.2447 13.5598C50.8861 13.5598 50.5904 13.6412 50.3575 13.8038C50.1283 13.9628 49.9582 14.1865 49.8473 14.4748C49.7364 14.7595 49.681 15.0903 49.681 15.4674C49.681 16.0478 49.8122 16.5117 50.0747 16.8592C50.3409 17.203 50.7309 17.3749 51.2447 17.3749ZM55.4553 18.4618V12.473H56.6365V13.9314L56.4923 13.7428C56.5662 13.5432 56.6642 13.3621 56.7862 13.1994C56.9119 13.0331 57.0616 12.8963 57.2353 12.7891C57.3832 12.6892 57.5459 12.6116 57.7233 12.5562C57.9045 12.497 58.0893 12.4619 58.2778 12.4508C58.4664 12.436 58.6494 12.4434 58.8268 12.473V13.7207C58.6494 13.6689 58.4442 13.6523 58.2113 13.6707C57.9821 13.6892 57.7751 13.7539 57.5902 13.8648C57.4054 13.9646 57.2538 14.0922 57.1355 14.2474C57.0209 14.4027 56.9359 14.5802 56.8805 14.7798C56.825 14.9757 56.7973 15.1883 56.7973 15.4175V18.4618H55.4553ZM63.3951 18.4618C62.9995 18.5357 62.6114 18.5672 62.2306 18.5561C61.8535 18.5487 61.5153 18.4803 61.2158 18.3509C60.9164 18.2178 60.6891 18.0089 60.5338 17.7243C60.397 17.4655 60.3249 17.2012 60.3175 16.9313C60.3101 16.6615 60.3064 16.3565 60.3064 16.0164V10.8094H61.6373V15.9387C61.6373 16.179 61.6391 16.3897 61.6428 16.5709C61.6502 16.752 61.689 16.8999 61.7593 17.0145C61.8924 17.2363 62.1049 17.3601 62.397 17.386C62.689 17.4119 63.0217 17.3971 63.3951 17.3417V18.4618ZM59.2196 13.521V12.473H63.3951V13.521H59.2196Z" fill="white"/>
</svg>
